<svg width="566" height="310" viewBox="0 0 566 310" fill="none" xmlns="http://www.w3.org/2000/svg">
<rect width="566" height="310" fill="white"/>
<rect x="0.5" y="0.5" width="175" height="149" transform="translate(374 11)" fill="white" stroke="black"/>
<path d="M9.54492 12.333C9.54492 13.8564 9.21973 15.0459 8.56934 15.9014C7.91895 16.751 7.01074 17.1758 5.84473 17.1758C4.81348 17.1758 3.99023 16.7803 3.375 15.9893L3.26074 17H0.975586V3.5H3.51562V8.34277C4.10156 7.65723 4.87207 7.31445 5.82715 7.31445C6.9873 7.31445 7.89551 7.74219 8.55176 8.59766C9.21387 9.44727 9.54492 10.6455 9.54492 12.1924V12.333ZM7.00488 12.1484C7.00488 11.1875 6.85254 10.4873 6.54785 10.0479C6.24316 9.60254 5.78906 9.37988 5.18555 9.37988C4.37695 9.37988 3.82031 9.71094 3.51562 10.373V14.126C3.82617 14.7939 4.38867 15.1279 5.20312 15.1279C6.02344 15.1279 6.5625 14.7236 6.82031 13.915C6.94336 13.5283 7.00488 12.9395 7.00488 12.1484ZM15.4951 17.1758C14.1006 17.1758 12.9639 16.748 12.085 15.8926C11.2119 15.0371 10.7754 13.8975 10.7754 12.4736V12.2275C10.7754 11.2725 10.96 10.4199 11.3291 9.66992C11.6982 8.91406 12.2197 8.33398 12.8936 7.92969C13.5732 7.51953 14.3467 7.31445 15.2139 7.31445C16.5146 7.31445 17.5371 7.72461 18.2812 8.54492C19.0312 9.36523 19.4062 10.5283 19.4062 12.0342V13.0713H13.3506C13.4326 13.6924 13.6787 14.1904 14.0889 14.5654C14.5049 14.9404 15.0293 15.1279 15.6621 15.1279C16.6406 15.1279 17.4053 14.7734 17.9561 14.0645L19.2041 15.4619C18.8232 16.001 18.3076 16.4229 17.6572 16.7275C17.0068 17.0264 16.2861 17.1758 15.4951 17.1758ZM15.2051 9.37109C14.7012 9.37109 14.291 9.54102 13.9746 9.88086C13.6641 10.2207 13.4648 10.707 13.377 11.3398H16.9102V11.1377C16.8984 10.5752 16.7461 10.1416 16.4531 9.83691C16.1602 9.52637 15.7441 9.37109 15.2051 9.37109ZM24.2842 13.4053L26.042 7.49023H28.7666L24.9434 18.4766L24.7324 18.9775C24.1641 20.2197 23.2266 20.8408 21.9199 20.8408C21.5508 20.8408 21.1758 20.7852 20.7949 20.6738V18.749L21.1816 18.7578C21.6621 18.7578 22.0195 18.6846 22.2539 18.5381C22.4941 18.3916 22.6816 18.1484 22.8164 17.8086L23.1152 17.0264L19.7842 7.49023H22.5176L24.2842 13.4053ZM29.2324 12.1572C29.2324 11.2139 29.4141 10.373 29.7773 9.63477C30.1406 8.89648 30.6621 8.3252 31.3418 7.9209C32.0273 7.5166 32.8213 7.31445 33.7236 7.31445C35.0068 7.31445 36.0527 7.70703 36.8613 8.49219C37.6758 9.27734 38.1299 10.3438 38.2236 11.6914L38.2412 12.3418C38.2412 13.8008 37.834 14.9727 37.0195 15.8574C36.2051 16.7363 35.1123 17.1758 33.7412 17.1758C32.3701 17.1758 31.2744 16.7363 30.4541 15.8574C29.6396 14.9785 29.2324 13.7832 29.2324 12.2715V12.1572ZM31.7725 12.3418C31.7725 13.2441 31.9424 13.9355 32.2822 14.416C32.6221 14.8906 33.1084 15.1279 33.7412 15.1279C34.3564 15.1279 34.8369 14.8936 35.1826 14.4248C35.5283 13.9502 35.7012 13.1943 35.7012 12.1572C35.7012 11.2725 35.5283 10.5869 35.1826 10.1006C34.8369 9.61426 34.3506 9.37109 33.7236 9.37109C33.1025 9.37109 32.6221 9.61426 32.2822 10.1006C31.9424 10.5811 31.7725 11.3281 31.7725 12.3418ZM42.1436 7.49023L42.2227 8.58887C42.9023 7.73926 43.8135 7.31445 44.9561 7.31445C45.9639 7.31445 46.7139 7.61035 47.2061 8.20215C47.6982 8.79395 47.9502 9.67871 47.9619 10.8564V17H45.4219V10.918C45.4219 10.3789 45.3047 9.98926 45.0703 9.74902C44.8359 9.50293 44.4463 9.37988 43.9014 9.37988C43.1865 9.37988 42.6504 9.68457 42.293 10.2939V17H39.7529V7.49023H42.1436ZM53.8506 15.1279C54.3193 15.1279 54.7002 14.999 54.9932 14.7412C55.2861 14.4834 55.4385 14.1406 55.4502 13.7129H57.832C57.8262 14.3574 57.6504 14.9492 57.3047 15.4883C56.959 16.0215 56.4844 16.4375 55.8809 16.7363C55.2832 17.0293 54.6211 17.1758 53.8945 17.1758C52.5352 17.1758 51.4629 16.7451 50.6777 15.8838C49.8926 15.0166 49.5 13.8213 49.5 12.2979V12.1309C49.5 10.666 49.8896 9.49707 50.6689 8.62402C51.4482 7.75098 52.5176 7.31445 53.877 7.31445C55.0664 7.31445 56.0186 7.6543 56.7334 8.33398C57.4541 9.00781 57.8203 9.90723 57.832 11.0322H55.4502C55.4385 10.54 55.2861 10.1416 54.9932 9.83691C54.7002 9.52637 54.3135 9.37109 53.833 9.37109C53.2412 9.37109 52.793 9.58789 52.4883 10.0215C52.1895 10.4492 52.04 11.1465 52.04 12.1133V12.377C52.04 13.3555 52.1895 14.0586 52.4883 14.4863C52.7871 14.9141 53.2412 15.1279 53.8506 15.1279ZM63.6592 17.1758C62.2646 17.1758 61.1279 16.748 60.249 15.8926C59.376 15.0371 58.9395 13.8975 58.9395 12.4736V12.2275C58.9395 11.2725 59.124 10.4199 59.4932 9.66992C59.8623 8.91406 60.3838 8.33398 61.0576 7.92969C61.7373 7.51953 62.5107 7.31445 63.3779 7.31445C64.6787 7.31445 65.7012 7.72461 66.4453 8.54492C67.1953 9.36523 67.5703 10.5283 67.5703 12.0342V13.0713H61.5146C61.5967 13.6924 61.8428 14.1904 62.2529 14.5654C62.6689 14.9404 63.1934 15.1279 63.8262 15.1279C64.8047 15.1279 65.5693 14.7734 66.1201 14.0645L67.3682 15.4619C66.9873 16.001 66.4717 16.4229 65.8213 16.7275C65.1709 17.0264 64.4502 17.1758 63.6592 17.1758ZM63.3691 9.37109C62.8652 9.37109 62.4551 9.54102 62.1387 9.88086C61.8281 10.2207 61.6289 10.707 61.541 11.3398H65.0742V11.1377C65.0625 10.5752 64.9102 10.1416 64.6172 9.83691C64.3242 9.52637 63.9082 9.37109 63.3691 9.37109Z" transform="translate(434 15)" fill="black"/>
<path d="M0.518555 17L2.74219 4.20312L6.49512 4.21191C7.80176 4.21191 8.78027 4.50488 9.43066 5.09082C10.0811 5.67676 10.3652 6.49414 10.2832 7.54297C10.1777 8.76758 9.40723 9.69043 7.97168 10.3115C8.5459 10.5342 8.97363 10.915 9.25488 11.4541C9.54199 11.9932 9.65918 12.5879 9.60645 13.2383C9.51855 14.3926 9.05566 15.3096 8.21777 15.9893C7.37988 16.6631 6.2959 17 4.96582 17H0.518555ZM3.20801 11.0146L2.4082 15.6201L5.01855 15.6289C5.81543 15.6289 6.4834 15.415 7.02246 14.9873C7.56152 14.5596 7.875 13.9824 7.96289 13.2559C8.04492 12.5645 7.9248 12.0254 7.60254 11.6387C7.28027 11.252 6.77344 11.0469 6.08203 11.0234L3.20801 11.0146ZM3.44531 9.66113L5.82715 9.66992C6.57129 9.66992 7.19824 9.47949 7.70801 9.09863C8.22363 8.71777 8.52539 8.19336 8.61328 7.52539C8.68945 6.9043 8.56641 6.43555 8.24414 6.11914C7.92773 5.80273 7.40039 5.62988 6.66211 5.60059L4.14844 5.5918L3.44531 9.66113ZM15.3545 17.1758C14.1709 17.1523 13.2451 16.7158 12.5771 15.8662C11.9092 15.0166 11.6279 13.9297 11.7334 12.6055L11.7773 12.2275C11.877 11.2842 12.1553 10.4229 12.6123 9.64355C13.0752 8.86426 13.6377 8.27832 14.2998 7.88574C14.9619 7.4873 15.6768 7.29688 16.4443 7.31445C17.4229 7.33789 18.1904 7.66309 18.7471 8.29004C19.3037 8.91699 19.6084 9.7666 19.6611 10.8389C19.6787 11.2197 19.667 11.6006 19.626 11.9814L19.5293 12.7109H13.3154C13.21 13.5723 13.3506 14.3047 13.7373 14.9082C14.1299 15.5117 14.7129 15.8252 15.4863 15.8486C16.4238 15.8721 17.291 15.4502 18.0879 14.583L19.002 15.3564C18.6035 15.9307 18.0879 16.3818 17.4551 16.71C16.8281 17.0322 16.1279 17.1875 15.3545 17.1758ZM16.3652 8.6416C15.709 8.62402 15.1348 8.84668 14.6426 9.30957C14.1562 9.77246 13.7695 10.4609 13.4824 11.375L18.1055 11.3838L18.1406 11.2432C18.2344 10.5049 18.1143 9.89258 17.7803 9.40625C17.4521 8.91406 16.9805 8.65918 16.3652 8.6416ZM23.5459 8.65039C24.3779 7.74219 25.3359 7.2998 26.4199 7.32324C27.3105 7.33496 27.9697 7.64258 28.3975 8.24609C28.8311 8.84375 28.9922 9.68457 28.8809 10.7686L27.8438 17H26.2529L27.2988 10.7422C27.334 10.4551 27.3369 10.1885 27.3076 9.94238C27.208 9.12207 26.7246 8.70312 25.8574 8.68555C24.8848 8.66211 24.0469 9.17188 23.3438 10.2148L22.166 17H20.5752L22.9219 3.5H24.5127L23.5459 8.65039ZM36.0967 17C36.0557 16.8301 36.0352 16.6631 36.0352 16.499L36.0615 15.998C35.1885 16.8066 34.2627 17.1992 33.2842 17.1758C32.4463 17.1641 31.7637 16.9004 31.2363 16.3848C30.7148 15.8633 30.4775 15.2129 30.5244 14.4336C30.583 13.4258 31.0225 12.6406 31.8428 12.0781C32.6689 11.5098 33.7529 11.2256 35.0947 11.2256L36.7559 11.2344L36.8613 10.4785C36.9199 9.91016 36.8086 9.46191 36.5273 9.13379C36.252 8.7998 35.8359 8.62695 35.2793 8.61523C34.7344 8.60352 34.251 8.73828 33.8291 9.01953C33.4131 9.29492 33.1582 9.66113 33.0645 10.1182L31.4648 10.127C31.5176 9.57031 31.7344 9.07812 32.1152 8.65039C32.4961 8.2168 32.9854 7.88281 33.583 7.64844C34.1807 7.4082 34.7988 7.29395 35.4375 7.30566C36.4277 7.3291 37.1982 7.63086 37.749 8.21094C38.2998 8.78516 38.5312 9.5498 38.4434 10.5049L37.6699 15.2158L37.626 15.8926C37.6143 16.2148 37.6494 16.5342 37.7314 16.8506L37.7139 17H36.0967ZM33.6006 15.7695C34.1104 15.7812 34.5908 15.6611 35.042 15.4092C35.499 15.1514 35.8916 14.7969 36.2197 14.3457L36.5625 12.3857L35.3584 12.377C34.3564 12.377 33.5889 12.5352 33.0557 12.8516C32.5225 13.168 32.2207 13.6162 32.1504 14.1963C32.0977 14.6416 32.2002 15.0137 32.458 15.3125C32.7217 15.6055 33.1025 15.7578 33.6006 15.7695ZM43.1895 14.7764L46.6172 7.49023H48.2959L43.5059 17H42.293L40.4297 7.49023H41.9941L43.1895 14.7764ZM50.001 17H48.4189L50.0713 7.49023H51.6533L50.001 17ZM51.3105 4.01855C51.5801 4.00684 51.8027 4.08887 51.9785 4.26465C52.1602 4.43457 52.251 4.66016 52.251 4.94141C52.2451 5.2168 52.1543 5.44238 51.9785 5.61816C51.8086 5.79395 51.5859 5.8877 51.3105 5.89941C51.0352 5.91113 50.8096 5.83203 50.6338 5.66211C50.458 5.49219 50.373 5.26953 50.3789 4.99414C50.3848 4.71875 50.4727 4.49023 50.6426 4.30859C50.8125 4.12695 51.0352 4.03027 51.3105 4.01855ZM57.8848 7.31445C58.6816 7.32617 59.3643 7.54297 59.9326 7.96484C60.501 8.38672 60.9199 8.96973 61.1895 9.71387C61.4648 10.4521 61.5586 11.2607 61.4707 12.1396L61.4531 12.333C61.3418 13.2588 61.0664 14.0967 60.627 14.8467C60.1875 15.5908 59.6191 16.1709 58.9219 16.5869C58.2246 17.0029 57.46 17.1992 56.6279 17.1758C55.8369 17.1641 55.1543 16.9473 54.5801 16.5254C54.0117 16.1035 53.5957 15.5293 53.332 14.8027C53.0684 14.0762 52.9746 13.2764 53.0508 12.4033C53.1387 11.4189 53.4053 10.5342 53.8506 9.74902C54.2959 8.96387 54.8672 8.35742 55.5645 7.92969C56.2676 7.49609 57.041 7.29102 57.8848 7.31445ZM54.6504 12.4121C54.6094 12.7812 54.6094 13.165 54.6504 13.5635C54.709 14.2549 54.9141 14.8057 55.2656 15.2158C55.623 15.626 56.0977 15.8398 56.6895 15.8574C57.2168 15.875 57.7031 15.7461 58.1484 15.4707C58.5938 15.1895 58.9688 14.7676 59.2734 14.2051C59.5781 13.6426 59.7744 13.0186 59.8623 12.333C59.9092 11.7939 59.918 11.3398 59.8887 10.9707C59.8184 10.2617 59.6045 9.70215 59.2471 9.29199C58.8896 8.88184 58.415 8.66504 57.8232 8.6416C57.0029 8.62402 56.3057 8.94629 55.7314 9.6084C55.1572 10.2705 54.8027 11.1377 54.668 12.21L54.6504 12.4121ZM68.5723 8.94043L67.8252 8.86133C66.8057 8.86133 66.0029 9.32129 65.417 10.2412L64.248 17H62.6572L64.3096 7.49023L65.8477 7.48145L65.6104 8.58887C66.2842 7.7041 67.0781 7.27344 67.9922 7.29688C68.1855 7.29688 68.4375 7.34082 68.748 7.42871L68.5723 8.94043ZM74.54 14.4248C74.6279 13.7686 74.2676 13.3057 73.459 13.0361L71.8066 12.5527C70.4121 12.0723 69.7383 11.2754 69.7852 10.1621C69.8262 9.32422 70.207 8.63867 70.9277 8.10547C71.6543 7.56641 72.5068 7.30273 73.4854 7.31445C74.4463 7.32617 75.2256 7.60742 75.8232 8.1582C76.4268 8.70312 76.7168 9.41504 76.6934 10.2939L75.1113 10.2852C75.123 9.81055 74.9736 9.42383 74.6631 9.125C74.3525 8.82617 73.9395 8.6709 73.4238 8.65918C72.873 8.64746 72.3984 8.78223 72 9.06348C71.6309 9.32715 71.417 9.67285 71.3584 10.1006C71.2822 10.6514 71.6191 11.0527 72.3691 11.3047L73.1689 11.5244C74.2588 11.8057 75.0322 12.1719 75.4893 12.623C75.9463 13.0742 76.1572 13.6338 76.1221 14.3018C76.0869 14.8936 75.8936 15.4092 75.542 15.8486C75.1904 16.2881 74.7217 16.625 74.1357 16.8594C73.5498 17.0879 72.9258 17.1934 72.2637 17.1758C71.2559 17.1641 70.4238 16.8711 69.7676 16.2969C69.1113 15.7168 68.7949 14.9727 68.8184 14.0645L70.4092 14.0732C70.4092 14.6064 70.5791 15.0342 70.9189 15.3564C71.2588 15.6787 71.7246 15.8398 72.3164 15.8398C72.8965 15.8516 73.3975 15.7314 73.8193 15.4795C74.2412 15.2217 74.4814 14.8701 74.54 14.4248Z" transform="translate(382 45)" fill="black"/>
<path d="M0.518555 17L2.74219 4.20312L6.06445 4.21191C7.10742 4.21191 8.00391 4.47266 8.75391 4.99414C9.50977 5.51562 10.0518 6.23633 10.3799 7.15625C10.708 8.07031 10.8047 9.0957 10.6699 10.2324L10.582 10.874C10.3242 12.7373 9.60059 14.2256 8.41113 15.3389C7.22168 16.4463 5.72754 17 3.92871 17H0.518555ZM4.14844 5.5918L2.4082 15.6201L4.03418 15.6289C5.27637 15.6289 6.32812 15.2422 7.18945 14.4688C8.05664 13.6953 8.61914 12.6348 8.87695 11.2871C9.08203 10.209 9.15234 9.29199 9.08789 8.53613C9 7.62793 8.69824 6.91895 8.18262 6.40918C7.66699 5.89355 6.97559 5.62402 6.1084 5.60059L4.14844 5.5918ZM17.6396 17C17.5986 16.8301 17.5781 16.6631 17.5781 16.499L17.6045 15.998C16.7314 16.8066 15.8057 17.1992 14.8271 17.1758C13.9893 17.1641 13.3066 16.9004 12.7793 16.3848C12.2578 15.8633 12.0205 15.2129 12.0674 14.4336C12.126 13.4258 12.5654 12.6406 13.3857 12.0781C14.2119 11.5098 15.2959 11.2256 16.6377 11.2256L18.2988 11.2344L18.4043 10.4785C18.4629 9.91016 18.3516 9.46191 18.0703 9.13379C17.7949 8.7998 17.3789 8.62695 16.8223 8.61523C16.2773 8.60352 15.7939 8.73828 15.3721 9.01953C14.9561 9.29492 14.7012 9.66113 14.6074 10.1182L13.0078 10.127C13.0605 9.57031 13.2773 9.07812 13.6582 8.65039C14.0391 8.2168 14.5283 7.88281 15.126 7.64844C15.7236 7.4082 16.3418 7.29395 16.9805 7.30566C17.9707 7.3291 18.7412 7.63086 19.292 8.21094C19.8428 8.78516 20.0742 9.5498 19.9863 10.5049L19.2129 15.2158L19.1689 15.8926C19.1572 16.2148 19.1924 16.5342 19.2744 16.8506L19.2568 17H17.6396ZM15.1436 15.7695C15.6533 15.7812 16.1338 15.6611 16.585 15.4092C17.042 15.1514 17.4346 14.7969 17.7627 14.3457L18.1055 12.3857L16.9014 12.377C15.8994 12.377 15.1318 12.5352 14.5986 12.8516C14.0654 13.168 13.7637 13.6162 13.6934 14.1963C13.6406 14.6416 13.7432 15.0137 14.001 15.3125C14.2646 15.6055 14.6455 15.7578 15.1436 15.7695ZM25.6201 5.1875L25.2158 7.49023H26.9473L26.7275 8.74707H25.0049L24.0117 14.6621C23.9941 14.8145 23.9912 14.9551 24.0029 15.084C24.0439 15.541 24.293 15.7695 24.75 15.7695C24.9434 15.7695 25.2012 15.7402 25.5234 15.6816L25.4004 17.0088C25.0195 17.1143 24.6328 17.167 24.2402 17.167C23.6074 17.1553 23.1328 16.9238 22.8164 16.4727C22.5 16.0156 22.377 15.4033 22.4473 14.6357L23.4141 8.74707H21.7354L21.9551 7.49023H23.6338L24.0381 5.1875H25.6201ZM33.0381 17C32.9971 16.8301 32.9766 16.6631 32.9766 16.499L33.0029 15.998C32.1299 16.8066 31.2041 17.1992 30.2256 17.1758C29.3877 17.1641 28.7051 16.9004 28.1777 16.3848C27.6562 15.8633 27.4189 15.2129 27.4658 14.4336C27.5244 13.4258 27.9639 12.6406 28.7842 12.0781C29.6104 11.5098 30.6943 11.2256 32.0361 11.2256L33.6973 11.2344L33.8027 10.4785C33.8613 9.91016 33.75 9.46191 33.4688 9.13379C33.1934 8.7998 32.7773 8.62695 32.2207 8.61523C31.6758 8.60352 31.1924 8.73828 30.7705 9.01953C30.3545 9.29492 30.0996 9.66113 30.0059 10.1182L28.4062 10.127C28.459 9.57031 28.6758 9.07812 29.0566 8.65039C29.4375 8.2168 29.9268 7.88281 30.5244 7.64844C31.1221 7.4082 31.7402 7.29395 32.3789 7.30566C33.3691 7.3291 34.1396 7.63086 34.6904 8.21094C35.2412 8.78516 35.4727 9.5498 35.3848 10.5049L34.6113 15.2158L34.5674 15.8926C34.5557 16.2148 34.5908 16.5342 34.6729 16.8506L34.6553 17H33.0381ZM30.542 15.7695C31.0518 15.7812 31.5322 15.6611 31.9834 15.4092C32.4404 15.1514 32.833 14.7969 33.1611 14.3457L33.5039 12.3857L32.2998 12.377C31.2979 12.377 30.5303 12.5352 29.9971 12.8516C29.4639 13.168 29.1621 13.6162 29.0918 14.1963C29.0391 14.6416 29.1416 15.0137 29.3994 15.3125C29.6631 15.6055 30.0439 15.7578 30.542 15.7695Z" transform="translate(481 45)" fill="black"/>
<line y1="-0.5" x2="175" y2="-0.5" transform="translate(375 71)" stroke="black"/>
<line y1="-0.5" x2="175" y2="-0.5" transform="translate(375 42)" stroke="black"/>
<line y1="-0.5" x2="119" y2="-0.5" transform="translate(465 42) rotate(89.9845)" stroke="black"/>
<rect x="0.5" y="0.5" width="184" height="195" transform="translate(14 93)" fill="white" stroke="black"/>
<path d="M4.58789 4.20312L7.875 13.4844L11.1445 4.20312H14.6074V17H11.9619V13.502L12.2256 7.46387L8.77148 17H6.96094L3.51562 7.47266L3.7793 13.502V17H1.14258V4.20312H4.58789ZM22.4385 16.0332C21.8115 16.7949 20.9443 17.1758 19.8369 17.1758C18.8174 17.1758 18.0381 16.8828 17.499 16.2969C16.9658 15.7109 16.6934 14.8525 16.6816 13.7217V7.49023H19.2217V13.6338C19.2217 14.624 19.6729 15.1191 20.5752 15.1191C21.4365 15.1191 22.0283 14.8203 22.3506 14.2227V7.49023H24.8994V17H22.5088L22.4385 16.0332ZM31.9658 14.3721C31.9658 14.0615 31.8105 13.8184 31.5 13.6426C31.1953 13.4609 30.7031 13.2998 30.0234 13.1592C27.7617 12.6846 26.6309 11.7236 26.6309 10.2764C26.6309 9.43262 26.9795 8.72949 27.6768 8.16699C28.3799 7.59863 29.2969 7.31445 30.4277 7.31445C31.6348 7.31445 32.5986 7.59863 33.3193 8.16699C34.0459 8.73535 34.4092 9.47363 34.4092 10.3818H31.8691C31.8691 10.0186 31.752 9.71973 31.5176 9.48535C31.2832 9.24512 30.917 9.125 30.4189 9.125C29.9912 9.125 29.6602 9.22168 29.4258 9.41504C29.1914 9.6084 29.0742 9.85449 29.0742 10.1533C29.0742 10.4346 29.2061 10.6631 29.4697 10.8389C29.7393 11.0088 30.1904 11.1582 30.8232 11.2871C31.4561 11.4102 31.9893 11.5508 32.4229 11.709C33.7646 12.2012 34.4355 13.0537 34.4355 14.2666C34.4355 15.1338 34.0635 15.8369 33.3193 16.376C32.5752 16.9092 31.6143 17.1758 30.4365 17.1758C29.6396 17.1758 28.9307 17.0352 28.3096 16.7539C27.6943 16.4668 27.2109 16.0771 26.8594 15.585C26.5078 15.0869 26.332 14.5508 26.332 13.9766H28.7402C28.7637 14.4277 28.9307 14.7734 29.2412 15.0137C29.5518 15.2539 29.9678 15.374 30.4893 15.374C30.9756 15.374 31.3418 15.2832 31.5879 15.1016C31.8398 14.9141 31.9658 14.6709 31.9658 14.3721ZM38.7598 17H36.2109V7.49023H38.7598V17ZM36.0615 5.0293C36.0615 4.64844 36.1875 4.33496 36.4395 4.08887C36.6973 3.84277 37.0459 3.71973 37.4854 3.71973C37.9189 3.71973 38.2646 3.84277 38.5225 4.08887C38.7803 4.33496 38.9092 4.64844 38.9092 5.0293C38.9092 5.41602 38.7773 5.73242 38.5137 5.97852C38.2559 6.22461 37.9131 6.34766 37.4854 6.34766C37.0576 6.34766 36.7119 6.22461 36.4482 5.97852C36.1904 5.73242 36.0615 5.41602 36.0615 5.0293ZM44.8154 15.1279C45.2842 15.1279 45.665 14.999 45.958 14.7412C46.251 14.4834 46.4033 14.1406 46.415 13.7129H48.7969C48.791 14.3574 48.6152 14.9492 48.2695 15.4883C47.9238 16.0215 47.4492 16.4375 46.8457 16.7363C46.248 17.0293 45.5859 17.1758 44.8594 17.1758C43.5 17.1758 42.4277 16.7451 41.6426 15.8838C40.8574 15.0166 40.4648 13.8213 40.4648 12.2979V12.1309C40.4648 10.666 40.8545 9.49707 41.6338 8.62402C42.4131 7.75098 43.4824 7.31445 44.8418 7.31445C46.0312 7.31445 46.9834 7.6543 47.6982 8.33398C48.4189 9.00781 48.7852 9.90723 48.7969 11.0322H46.415C46.4033 10.54 46.251 10.1416 45.958 9.83691C45.665 9.52637 45.2783 9.37109 44.7979 9.37109C44.2061 9.37109 43.7578 9.58789 43.4531 10.0215C43.1543 10.4492 43.0049 11.1465 43.0049 12.1133V12.377C43.0049 13.3555 43.1543 14.0586 43.4531 14.4863C43.752 14.9141 44.2061 15.1279 44.8154 15.1279ZM62.1211 14.3633H57.498L56.6191 17H53.8154L58.5791 4.20312H61.0225L65.8125 17H63.0088L62.1211 14.3633ZM58.21 12.2275H61.4092L59.8008 7.4375L58.21 12.2275ZM72.1846 9.87207C71.8389 9.8252 71.5342 9.80176 71.2705 9.80176C70.3096 9.80176 69.6797 10.127 69.3809 10.7773V17H66.8408V7.49023H69.2402L69.3105 8.62402C69.8203 7.75098 70.5264 7.31445 71.4287 7.31445C71.71 7.31445 71.9736 7.35254 72.2197 7.42871L72.1846 9.87207ZM76.8955 5.15234V7.49023H78.5215V9.35352H76.8955V14.0996C76.8955 14.4512 76.9629 14.7031 77.0977 14.8555C77.2324 15.0078 77.4902 15.084 77.8711 15.084C78.1523 15.084 78.4014 15.0635 78.6182 15.0225V16.9473C78.1201 17.0996 77.6074 17.1758 77.0801 17.1758C75.2988 17.1758 74.3906 16.2764 74.3555 14.4775V9.35352H72.9668V7.49023H74.3555V5.15234H76.8955ZM82.6172 17H80.0684V7.49023H82.6172V17ZM79.9189 5.0293C79.9189 4.64844 80.0449 4.33496 80.2969 4.08887C80.5547 3.84277 80.9033 3.71973 81.3428 3.71973C81.7764 3.71973 82.1221 3.84277 82.3799 4.08887C82.6377 4.33496 82.7666 4.64844 82.7666 5.0293C82.7666 5.41602 82.6348 5.73242 82.3711 5.97852C82.1133 6.22461 81.7705 6.34766 81.3428 6.34766C80.915 6.34766 80.5693 6.22461 80.3057 5.97852C80.0479 5.73242 79.9189 5.41602 79.9189 5.0293ZM89.8682 14.3721C89.8682 14.0615 89.7129 13.8184 89.4023 13.6426C89.0977 13.4609 88.6055 13.2998 87.9258 13.1592C85.6641 12.6846 84.5332 11.7236 84.5332 10.2764C84.5332 9.43262 84.8818 8.72949 85.5791 8.16699C86.2822 7.59863 87.1992 7.31445 88.3301 7.31445C89.5371 7.31445 90.501 7.59863 91.2217 8.16699C91.9482 8.73535 92.3115 9.47363 92.3115 10.3818H89.7715C89.7715 10.0186 89.6543 9.71973 89.4199 9.48535C89.1855 9.24512 88.8193 9.125 88.3213 9.125C87.8936 9.125 87.5625 9.22168 87.3281 9.41504C87.0938 9.6084 86.9766 9.85449 86.9766 10.1533C86.9766 10.4346 87.1084 10.6631 87.3721 10.8389C87.6416 11.0088 88.0928 11.1582 88.7256 11.2871C89.3584 11.4102 89.8916 11.5508 90.3252 11.709C91.667 12.2012 92.3379 13.0537 92.3379 14.2666C92.3379 15.1338 91.9658 15.8369 91.2217 16.376C90.4775 16.9092 89.5166 17.1758 88.3389 17.1758C87.542 17.1758 86.833 17.0352 86.2119 16.7539C85.5967 16.4668 85.1133 16.0771 84.7617 15.585C84.4102 15.0869 84.2344 14.5508 84.2344 13.9766H86.6426C86.666 14.4277 86.833 14.7734 87.1436 15.0137C87.4541 15.2539 87.8701 15.374 88.3916 15.374C88.8779 15.374 89.2441 15.2832 89.4902 15.1016C89.7422 14.9141 89.8682 14.6709 89.8682 14.3721ZM97.0225 5.15234V7.49023H98.6484V9.35352H97.0225V14.0996C97.0225 14.4512 97.0898 14.7031 97.2246 14.8555C97.3594 15.0078 97.6172 15.084 97.998 15.084C98.2793 15.084 98.5283 15.0635 98.7451 15.0225V16.9473C98.2471 17.0996 97.7344 17.1758 97.207 17.1758C95.4258 17.1758 94.5176 16.2764 94.4824 14.4775V9.35352H93.0938V7.49023H94.4824V5.15234H97.0225Z" transform="translate(61 97)" fill="black"/>
<path d="M0.518555 17L2.74219 4.20312L6.49512 4.21191C7.80176 4.21191 8.78027 4.50488 9.43066 5.09082C10.0811 5.67676 10.3652 6.49414 10.2832 7.54297C10.1777 8.76758 9.40723 9.69043 7.97168 10.3115C8.5459 10.5342 8.97363 10.915 9.25488 11.4541C9.54199 11.9932 9.65918 12.5879 9.60645 13.2383C9.51855 14.3926 9.05566 15.3096 8.21777 15.9893C7.37988 16.6631 6.2959 17 4.96582 17H0.518555ZM3.20801 11.0146L2.4082 15.6201L5.01855 15.6289C5.81543 15.6289 6.4834 15.415 7.02246 14.9873C7.56152 14.5596 7.875 13.9824 7.96289 13.2559C8.04492 12.5645 7.9248 12.0254 7.60254 11.6387C7.28027 11.252 6.77344 11.0469 6.08203 11.0234L3.20801 11.0146ZM3.44531 9.66113L5.82715 9.66992C6.57129 9.66992 7.19824 9.47949 7.70801 9.09863C8.22363 8.71777 8.52539 8.19336 8.61328 7.52539C8.68945 6.9043 8.56641 6.43555 8.24414 6.11914C7.92773 5.80273 7.40039 5.62988 6.66211 5.60059L4.14844 5.5918L3.44531 9.66113ZM15.3545 17.1758C14.1709 17.1523 13.2451 16.7158 12.5771 15.8662C11.9092 15.0166 11.6279 13.9297 11.7334 12.6055L11.7773 12.2275C11.877 11.2842 12.1553 10.4229 12.6123 9.64355C13.0752 8.86426 13.6377 8.27832 14.2998 7.88574C14.9619 7.4873 15.6768 7.29688 16.4443 7.31445C17.4229 7.33789 18.1904 7.66309 18.7471 8.29004C19.3037 8.91699 19.6084 9.7666 19.6611 10.8389C19.6787 11.2197 19.667 11.6006 19.626 11.9814L19.5293 12.7109H13.3154C13.21 13.5723 13.3506 14.3047 13.7373 14.9082C14.1299 15.5117 14.7129 15.8252 15.4863 15.8486C16.4238 15.8721 17.291 15.4502 18.0879 14.583L19.002 15.3564C18.6035 15.9307 18.0879 16.3818 17.4551 16.71C16.8281 17.0322 16.1279 17.1875 15.3545 17.1758ZM16.3652 8.6416C15.709 8.62402 15.1348 8.84668 14.6426 9.30957C14.1562 9.77246 13.7695 10.4609 13.4824 11.375L18.1055 11.3838L18.1406 11.2432C18.2344 10.5049 18.1143 9.89258 17.7803 9.40625C17.4521 8.91406 16.9805 8.65918 16.3652 8.6416ZM23.5459 8.65039C24.3779 7.74219 25.3359 7.2998 26.4199 7.32324C27.3105 7.33496 27.9697 7.64258 28.3975 8.24609C28.8311 8.84375 28.9922 9.68457 28.8809 10.7686L27.8438 17H26.2529L27.2988 10.7422C27.334 10.4551 27.3369 10.1885 27.3076 9.94238C27.208 9.12207 26.7246 8.70312 25.8574 8.68555C24.8848 8.66211 24.0469 9.17188 23.3438 10.2148L22.166 17H20.5752L22.9219 3.5H24.5127L23.5459 8.65039ZM36.0967 17C36.0557 16.8301 36.0352 16.6631 36.0352 16.499L36.0615 15.998C35.1885 16.8066 34.2627 17.1992 33.2842 17.1758C32.4463 17.1641 31.7637 16.9004 31.2363 16.3848C30.7148 15.8633 30.4775 15.2129 30.5244 14.4336C30.583 13.4258 31.0225 12.6406 31.8428 12.0781C32.6689 11.5098 33.7529 11.2256 35.0947 11.2256L36.7559 11.2344L36.8613 10.4785C36.9199 9.91016 36.8086 9.46191 36.5273 9.13379C36.252 8.7998 35.8359 8.62695 35.2793 8.61523C34.7344 8.60352 34.251 8.73828 33.8291 9.01953C33.4131 9.29492 33.1582 9.66113 33.0645 10.1182L31.4648 10.127C31.5176 9.57031 31.7344 9.07812 32.1152 8.65039C32.4961 8.2168 32.9854 7.88281 33.583 7.64844C34.1807 7.4082 34.7988 7.29395 35.4375 7.30566C36.4277 7.3291 37.1982 7.63086 37.749 8.21094C38.2998 8.78516 38.5312 9.5498 38.4434 10.5049L37.6699 15.2158L37.626 15.8926C37.6143 16.2148 37.6494 16.5342 37.7314 16.8506L37.7139 17H36.0967ZM33.6006 15.7695C34.1104 15.7812 34.5908 15.6611 35.042 15.4092C35.499 15.1514 35.8916 14.7969 36.2197 14.3457L36.5625 12.3857L35.3584 12.377C34.3564 12.377 33.5889 12.5352 33.0557 12.8516C32.5225 13.168 32.2207 13.6162 32.1504 14.1963C32.0977 14.6416 32.2002 15.0137 32.458 15.3125C32.7217 15.6055 33.1025 15.7578 33.6006 15.7695ZM43.1895 14.7764L46.6172 7.49023H48.2959L43.5059 17H42.293L40.4297 7.49023H41.9941L43.1895 14.7764ZM50.001 17H48.4189L50.0713 7.49023H51.6533L50.001 17ZM51.3105 4.01855C51.5801 4.00684 51.8027 4.08887 51.9785 4.26465C52.1602 4.43457 52.251 4.66016 52.251 4.94141C52.2451 5.2168 52.1543 5.44238 51.9785 5.61816C51.8086 5.79395 51.5859 5.8877 51.3105 5.89941C51.0352 5.91113 50.8096 5.83203 50.6338 5.66211C50.458 5.49219 50.373 5.26953 50.3789 4.99414C50.3848 4.71875 50.4727 4.49023 50.6426 4.30859C50.8125 4.12695 51.0352 4.03027 51.3105 4.01855ZM57.8848 7.31445C58.6816 7.32617 59.3643 7.54297 59.9326 7.96484C60.501 8.38672 60.9199 8.96973 61.1895 9.71387C61.4648 10.4521 61.5586 11.2607 61.4707 12.1396L61.4531 12.333C61.3418 13.2588 61.0664 14.0967 60.627 14.8467C60.1875 15.5908 59.6191 16.1709 58.9219 16.5869C58.2246 17.0029 57.46 17.1992 56.6279 17.1758C55.8369 17.1641 55.1543 16.9473 54.5801 16.5254C54.0117 16.1035 53.5957 15.5293 53.332 14.8027C53.0684 14.0762 52.9746 13.2764 53.0508 12.4033C53.1387 11.4189 53.4053 10.5342 53.8506 9.74902C54.2959 8.96387 54.8672 8.35742 55.5645 7.92969C56.2676 7.49609 57.041 7.29102 57.8848 7.31445ZM54.6504 12.4121C54.6094 12.7812 54.6094 13.165 54.6504 13.5635C54.709 14.2549 54.9141 14.8057 55.2656 15.2158C55.623 15.626 56.0977 15.8398 56.6895 15.8574C57.2168 15.875 57.7031 15.7461 58.1484 15.4707C58.5938 15.1895 58.9688 14.7676 59.2734 14.2051C59.5781 13.6426 59.7744 13.0186 59.8623 12.333C59.9092 11.7939 59.918 11.3398 59.8887 10.9707C59.8184 10.2617 59.6045 9.70215 59.2471 9.29199C58.8896 8.88184 58.415 8.66504 57.8232 8.6416C57.0029 8.62402 56.3057 8.94629 55.7314 9.6084C55.1572 10.2705 54.8027 11.1377 54.668 12.21L54.6504 12.4121ZM68.5723 8.94043L67.8252 8.86133C66.8057 8.86133 66.0029 9.32129 65.417 10.2412L64.248 17H62.6572L64.3096 7.49023L65.8477 7.48145L65.6104 8.58887C66.2842 7.7041 67.0781 7.27344 67.9922 7.29688C68.1855 7.29688 68.4375 7.34082 68.748 7.42871L68.5723 8.94043ZM74.54 14.4248C74.6279 13.7686 74.2676 13.3057 73.459 13.0361L71.8066 12.5527C70.4121 12.0723 69.7383 11.2754 69.7852 10.1621C69.8262 9.32422 70.207 8.63867 70.9277 8.10547C71.6543 7.56641 72.5068 7.30273 73.4854 7.31445C74.4463 7.32617 75.2256 7.60742 75.8232 8.1582C76.4268 8.70312 76.7168 9.41504 76.6934 10.2939L75.1113 10.2852C75.123 9.81055 74.9736 9.42383 74.6631 9.125C74.3525 8.82617 73.9395 8.6709 73.4238 8.65918C72.873 8.64746 72.3984 8.78223 72 9.06348C71.6309 9.32715 71.417 9.67285 71.3584 10.1006C71.2822 10.6514 71.6191 11.0527 72.3691 11.3047L73.1689 11.5244C74.2588 11.8057 75.0322 12.1719 75.4893 12.623C75.9463 13.0742 76.1572 13.6338 76.1221 14.3018C76.0869 14.8936 75.8936 15.4092 75.542 15.8486C75.1904 16.2881 74.7217 16.625 74.1357 16.8594C73.5498 17.0879 72.9258 17.1934 72.2637 17.1758C71.2559 17.1641 70.4238 16.8711 69.7676 16.2969C69.1113 15.7168 68.7949 14.9727 68.8184 14.0645L70.4092 14.0732C70.4092 14.6064 70.5791 15.0342 70.9189 15.3564C71.2588 15.6787 71.7246 15.8398 72.3164 15.8398C72.8965 15.8516 73.3975 15.7314 73.8193 15.4795C74.2412 15.2217 74.4814 14.8701 74.54 14.4248Z" transform="translate(26 127)" fill="black"/>
<path d="M0.518555 17L2.74219 4.20312L6.06445 4.21191C7.10742 4.21191 8.00391 4.47266 8.75391 4.99414C9.50977 5.51562 10.0518 6.23633 10.3799 7.15625C10.708 8.07031 10.8047 9.0957 10.6699 10.2324L10.582 10.874C10.3242 12.7373 9.60059 14.2256 8.41113 15.3389C7.22168 16.4463 5.72754 17 3.92871 17H0.518555ZM4.14844 5.5918L2.4082 15.6201L4.03418 15.6289C5.27637 15.6289 6.32812 15.2422 7.18945 14.4688C8.05664 13.6953 8.61914 12.6348 8.87695 11.2871C9.08203 10.209 9.15234 9.29199 9.08789 8.53613C9 7.62793 8.69824 6.91895 8.18262 6.40918C7.66699 5.89355 6.97559 5.62402 6.1084 5.60059L4.14844 5.5918ZM17.6396 17C17.5986 16.8301 17.5781 16.6631 17.5781 16.499L17.6045 15.998C16.7314 16.8066 15.8057 17.1992 14.8271 17.1758C13.9893 17.1641 13.3066 16.9004 12.7793 16.3848C12.2578 15.8633 12.0205 15.2129 12.0674 14.4336C12.126 13.4258 12.5654 12.6406 13.3857 12.0781C14.2119 11.5098 15.2959 11.2256 16.6377 11.2256L18.2988 11.2344L18.4043 10.4785C18.4629 9.91016 18.3516 9.46191 18.0703 9.13379C17.7949 8.7998 17.3789 8.62695 16.8223 8.61523C16.2773 8.60352 15.7939 8.73828 15.3721 9.01953C14.9561 9.29492 14.7012 9.66113 14.6074 10.1182L13.0078 10.127C13.0605 9.57031 13.2773 9.07812 13.6582 8.65039C14.0391 8.2168 14.5283 7.88281 15.126 7.64844C15.7236 7.4082 16.3418 7.29395 16.9805 7.30566C17.9707 7.3291 18.7412 7.63086 19.292 8.21094C19.8428 8.78516 20.0742 9.5498 19.9863 10.5049L19.2129 15.2158L19.1689 15.8926C19.1572 16.2148 19.1924 16.5342 19.2744 16.8506L19.2568 17H17.6396ZM15.1436 15.7695C15.6533 15.7812 16.1338 15.6611 16.585 15.4092C17.042 15.1514 17.4346 14.7969 17.7627 14.3457L18.1055 12.3857L16.9014 12.377C15.8994 12.377 15.1318 12.5352 14.5986 12.8516C14.0654 13.168 13.7637 13.6162 13.6934 14.1963C13.6406 14.6416 13.7432 15.0137 14.001 15.3125C14.2646 15.6055 14.6455 15.7578 15.1436 15.7695ZM25.6201 5.1875L25.2158 7.49023H26.9473L26.7275 8.74707H25.0049L24.0117 14.6621C23.9941 14.8145 23.9912 14.9551 24.0029 15.084C24.0439 15.541 24.293 15.7695 24.75 15.7695C24.9434 15.7695 25.2012 15.7402 25.5234 15.6816L25.4004 17.0088C25.0195 17.1143 24.6328 17.167 24.2402 17.167C23.6074 17.1553 23.1328 16.9238 22.8164 16.4727C22.5 16.0156 22.377 15.4033 22.4473 14.6357L23.4141 8.74707H21.7354L21.9551 7.49023H23.6338L24.0381 5.1875H25.6201ZM33.0381 17C32.9971 16.8301 32.9766 16.6631 32.9766 16.499L33.0029 15.998C32.1299 16.8066 31.2041 17.1992 30.2256 17.1758C29.3877 17.1641 28.7051 16.9004 28.1777 16.3848C27.6562 15.8633 27.4189 15.2129 27.4658 14.4336C27.5244 13.4258 27.9639 12.6406 28.7842 12.0781C29.6104 11.5098 30.6943 11.2256 32.0361 11.2256L33.6973 11.2344L33.8027 10.4785C33.8613 9.91016 33.75 9.46191 33.4688 9.13379C33.1934 8.7998 32.7773 8.62695 32.2207 8.61523C31.6758 8.60352 31.1924 8.73828 30.7705 9.01953C30.3545 9.29492 30.0996 9.66113 30.0059 10.1182L28.4062 10.127C28.459 9.57031 28.6758 9.07812 29.0566 8.65039C29.4375 8.2168 29.9268 7.88281 30.5244 7.64844C31.1221 7.4082 31.7402 7.29395 32.3789 7.30566C33.3691 7.3291 34.1396 7.63086 34.6904 8.21094C35.2412 8.78516 35.4727 9.5498 35.3848 10.5049L34.6113 15.2158L34.5674 15.8926C34.5557 16.2148 34.5908 16.5342 34.6729 16.8506L34.6553 17H33.0381ZM30.542 15.7695C31.0518 15.7812 31.5322 15.6611 31.9834 15.4092C32.4404 15.1514 32.833 14.7969 33.1611 14.3457L33.5039 12.3857L32.2998 12.377C31.2979 12.377 30.5303 12.5352 29.9971 12.8516C29.4639 13.168 29.1621 13.6162 29.0918 14.1963C29.0391 14.6416 29.1416 15.0137 29.3994 15.3125C29.6631 15.6055 30.0439 15.7578 30.542 15.7695Z" transform="translate(130 127)" fill="black"/>
<line y1="-0.5" x2="183.949" y2="-0.5" transform="translate(15.0511 153)" stroke="black"/>
<line y1="-0.5" x2="183.949" y2="-0.5" transform="translate(15.0511 124)" stroke="black"/>
<line y1="-0.5" x2="166" y2="-0.5" transform="translate(111 123) rotate(89.9889)" stroke="black"/>
<line y1="-0.5" x2="78.0064" y2="-0.5" transform="translate(198.997 171.5)" stroke="black"/>
<line y1="-0.5" x2="139" y2="-0.5" transform="translate(276 32) rotate(89.9987)" stroke="black"/>
<path d="M99.3536 0.353553C99.5488 0.158291 99.5488 -0.158291 99.3536 -0.353553L96.1716 -3.53553C95.9763 -3.7308 95.6597 -3.7308 95.4645 -3.53553C95.2692 -3.34027 95.2692 -3.02369 95.4645 -2.82843L98.2929 0L95.4645 2.82843C95.2692 3.02369 95.2692 3.34027 95.4645 3.53553C95.6597 3.7308 95.9763 3.7308 96.1716 3.53553L99.3536 0.353553ZM0 0.5H99V-0.5H0V0.5Z" transform="translate(276 32)" fill="black"/>
<path d="M0.729492 12.2275C0.84668 11.2607 1.11328 10.3877 1.5293 9.6084C1.94531 8.8291 2.45801 8.24609 3.06738 7.85938C3.67676 7.47266 4.34766 7.28809 5.08008 7.30566C6.14062 7.3291 6.95508 7.71582 7.52344 8.46582L8.4375 3.5H10.0283L7.69043 17H6.24023L6.40723 15.9805C5.65723 16.8008 4.73145 17.1992 3.62988 17.1758C2.75098 17.1523 2.05078 16.8096 1.5293 16.1475C1.00781 15.4795 0.726562 14.5859 0.685547 13.4668C0.667969 13.1211 0.682617 12.708 0.729492 12.2275ZM2.25879 13.1416C2.24121 13.9795 2.39062 14.6299 2.70703 15.0928C3.02344 15.5557 3.48633 15.793 4.0957 15.8047C5.01562 15.8457 5.83301 15.3828 6.54785 14.416L7.30371 10.0215C6.95215 9.1543 6.31348 8.70898 5.3877 8.68555C4.76074 8.66797 4.20703 8.8584 3.72656 9.25684C3.25195 9.64941 2.88867 10.2031 2.63672 10.918C2.39062 11.627 2.26465 12.3682 2.25879 13.1416ZM16.0225 17C15.9814 16.8301 15.9609 16.6631 15.9609 16.499L15.9873 15.998C15.1143 16.8066 14.1885 17.1992 13.21 17.1758C12.3721 17.1641 11.6895 16.9004 11.1621 16.3848C10.6406 15.8633 10.4033 15.2129 10.4502 14.4336C10.5088 13.4258 10.9482 12.6406 11.7686 12.0781C12.5947 11.5098 13.6787 11.2256 15.0205 11.2256L16.6816 11.2344L16.7871 10.4785C16.8457 9.91016 16.7344 9.46191 16.4531 9.13379C16.1777 8.7998 15.7617 8.62695 15.2051 8.61523C14.6602 8.60352 14.1768 8.73828 13.7549 9.01953C13.3389 9.29492 13.084 9.66113 12.9902 10.1182L11.3906 10.127C11.4434 9.57031 11.6602 9.07812 12.041 8.65039C12.4219 8.2168 12.9111 7.88281 13.5088 7.64844C14.1064 7.4082 14.7246 7.29395 15.3633 7.30566C16.3535 7.3291 17.124 7.63086 17.6748 8.21094C18.2256 8.78516 18.457 9.5498 18.3691 10.5049L17.5957 15.2158L17.5518 15.8926C17.54 16.2148 17.5752 16.5342 17.6572 16.8506L17.6396 17H16.0225ZM13.5264 15.7695C14.0361 15.7812 14.5166 15.6611 14.9678 15.4092C15.4248 15.1514 15.8174 14.7969 16.1455 14.3457L16.4883 12.3857L15.2842 12.377C14.2822 12.377 13.5146 12.5352 12.9814 12.8516C12.4482 13.168 12.1465 13.6162 12.0762 14.1963C12.0234 14.6416 12.126 15.0137 12.3838 15.3125C12.6475 15.6055 13.0283 15.7578 13.5264 15.7695ZM22.957 7.48145L22.7285 8.68555C23.584 7.74805 24.5566 7.29102 25.6465 7.31445C26.543 7.33789 27.2051 7.64844 27.6328 8.24609C28.0605 8.84375 28.2188 9.68457 28.1074 10.7686L27.0703 17H25.4795L26.5254 10.7422C26.5605 10.4551 26.5635 10.1885 26.5342 9.94238C26.4346 9.12207 25.9512 8.70312 25.084 8.68555C24.1289 8.66797 23.291 9.17773 22.5703 10.2148L21.3926 17H19.8018L21.4541 7.49023L22.957 7.48145ZM33.5391 15.8574C34.1074 15.8691 34.6201 15.7051 35.0771 15.3652C35.5342 15.0195 35.833 14.5684 35.9736 14.0117L37.4766 14.0029C37.3887 14.6006 37.1484 15.1455 36.7559 15.6377C36.3691 16.1299 35.8799 16.5137 35.2881 16.7891C34.6963 17.0645 34.0898 17.1934 33.4688 17.1758C32.6777 17.1641 32.0068 16.959 31.4561 16.5605C30.9111 16.1562 30.5098 15.5967 30.252 14.8818C29.9941 14.1611 29.9062 13.3525 29.9883 12.4561L30.0322 12.0166C30.1436 11.1025 30.4102 10.2852 30.832 9.56445C31.2539 8.84375 31.8047 8.28418 32.4844 7.88574C33.1641 7.48145 33.9141 7.29102 34.7344 7.31445C35.7305 7.33789 36.5273 7.67188 37.125 8.31641C37.7227 8.96094 38.0215 9.77832 38.0215 10.7686L36.5361 10.7598C36.5244 10.1387 36.3516 9.6377 36.0176 9.25684C35.6836 8.87012 35.2324 8.66504 34.6641 8.6416C33.8379 8.62402 33.1494 8.93164 32.5986 9.56445C32.0537 10.1973 31.7139 11.082 31.5791 12.2188L31.5527 12.4473C31.5176 12.8223 31.5117 13.209 31.5352 13.6074C31.5762 14.293 31.7695 14.835 32.1152 15.2334C32.4609 15.6318 32.9355 15.8398 33.5391 15.8574ZM42.8643 17.1758C41.6807 17.1523 40.7549 16.7158 40.0869 15.8662C39.4189 15.0166 39.1377 13.9297 39.2432 12.6055L39.2871 12.2275C39.3867 11.2842 39.665 10.4229 40.1221 9.64355C40.585 8.86426 41.1475 8.27832 41.8096 7.88574C42.4717 7.4873 43.1865 7.29688 43.9541 7.31445C44.9326 7.33789 45.7002 7.66309 46.2568 8.29004C46.8135 8.91699 47.1182 9.7666 47.1709 10.8389C47.1885 11.2197 47.1768 11.6006 47.1357 11.9814L47.0391 12.7109H40.8252C40.7197 13.5723 40.8604 14.3047 41.2471 14.9082C41.6396 15.5117 42.2227 15.8252 42.9961 15.8486C43.9336 15.8721 44.8008 15.4502 45.5977 14.583L46.5117 15.3564C46.1133 15.9307 45.5977 16.3818 44.9648 16.71C44.3379 17.0322 43.6377 17.1875 42.8643 17.1758ZM43.875 8.6416C43.2188 8.62402 42.6445 8.84668 42.1523 9.30957C41.666 9.77246 41.2793 10.4609 40.9922 11.375L45.6152 11.3838L45.6504 11.2432C45.7441 10.5049 45.624 9.89258 45.29 9.40625C44.9619 8.91406 44.4902 8.65918 43.875 8.6416Z" transform="translate(396 74)" fill="black"/>
<path d="M6.09082 17C6.0498 16.8301 6.0293 16.6631 6.0293 16.499L6.05566 15.998C5.18262 16.8066 4.25684 17.1992 3.27832 17.1758C2.44043 17.1641 1.75781 16.9004 1.23047 16.3848C0.708984 15.8633 0.47168 15.2129 0.518555 14.4336C0.577148 13.4258 1.0166 12.6406 1.83691 12.0781C2.66309 11.5098 3.74707 11.2256 5.08887 11.2256L6.75 11.2344L6.85547 10.4785C6.91406 9.91016 6.80273 9.46191 6.52148 9.13379C6.24609 8.7998 5.83008 8.62695 5.27344 8.61523C4.72852 8.60352 4.24512 8.73828 3.82324 9.01953C3.40723 9.29492 3.15234 9.66113 3.05859 10.1182L1.45898 10.127C1.51172 9.57031 1.72852 9.07812 2.10938 8.65039C2.49023 8.2168 2.97949 7.88281 3.57715 7.64844C4.1748 7.4082 4.79297 7.29395 5.43164 7.30566C6.42188 7.3291 7.19238 7.63086 7.74316 8.21094C8.29395 8.78516 8.52539 9.5498 8.4375 10.5049L7.66406 15.2158L7.62012 15.8926C7.6084 16.2148 7.64355 16.5342 7.72559 16.8506L7.70801 17H6.09082ZM3.59473 15.7695C4.10449 15.7812 4.58496 15.6611 5.03613 15.4092C5.49316 15.1514 5.88574 14.7969 6.21387 14.3457L6.55664 12.3857L5.35254 12.377C4.35059 12.377 3.58301 12.5352 3.0498 12.8516C2.5166 13.168 2.21484 13.6162 2.14453 14.1963C2.0918 14.6416 2.19434 15.0137 2.45215 15.3125C2.71582 15.6055 3.09668 15.7578 3.59473 15.7695ZM11.5928 17H10.0107L12.3486 3.5H13.9395L11.5928 17ZM22.8252 12.2891C22.708 13.2617 22.4414 14.1377 22.0254 14.917C21.6094 15.6963 21.1055 16.2734 20.5137 16.6484C19.9219 17.0234 19.2656 17.2021 18.5449 17.1846C17.3965 17.1611 16.5439 16.7305 15.9873 15.8926L15.6621 17H14.1943L16.541 3.5H18.1318L17.1738 8.54492C17.9355 7.70117 18.8613 7.29102 19.9512 7.31445C20.8652 7.33789 21.5771 7.6748 22.0869 8.3252C22.5967 8.97559 22.8662 9.87207 22.8955 11.0146C22.9014 11.3896 22.8838 11.7529 22.8428 12.1045L22.8252 12.2891ZM21.3135 11.3662C21.3311 10.5107 21.1875 9.85742 20.8828 9.40625C20.5781 8.94922 20.1123 8.70898 19.4854 8.68555C18.4951 8.66211 17.6572 9.16016 16.9717 10.1797L16.2598 14.3193C16.6113 15.2861 17.2705 15.7812 18.2373 15.8047C18.8584 15.8281 19.4004 15.6436 19.8633 15.251C20.332 14.8584 20.6865 14.3105 20.9268 13.6074C21.167 12.8984 21.2959 12.1514 21.3135 11.3662ZM30.1289 16.0596C29.3848 16.8271 28.4385 17.1992 27.29 17.1758C26.3818 17.1523 25.708 16.8271 25.2686 16.2002C24.835 15.5732 24.6738 14.7178 24.7852 13.6338L25.8047 7.49023H27.3955L26.3672 13.6602C26.3379 13.918 26.332 14.1699 26.3496 14.416C26.3789 14.8379 26.5049 15.1689 26.7275 15.4092C26.9502 15.6494 27.2607 15.7783 27.6592 15.7959C28.7959 15.8311 29.6748 15.3711 30.2959 14.416L31.4912 7.49023H33.082L31.4297 17H29.9268L30.1289 16.0596ZM36.9492 7.48145L36.7471 8.54492C37.5439 7.70117 38.5078 7.29102 39.6387 7.31445C40.2422 7.32617 40.752 7.46387 41.168 7.72754C41.5898 7.99121 41.8799 8.36328 42.0381 8.84375C42.9287 7.80078 43.9805 7.29102 45.1934 7.31445C46.1426 7.33789 46.8428 7.65723 47.2939 8.27246C47.7451 8.8877 47.9121 9.71387 47.7949 10.751L46.749 17H45.167L46.2041 10.7334C46.2393 10.4287 46.2393 10.1504 46.2041 9.89844C46.0928 9.10156 45.5713 8.69434 44.6396 8.67676C44.0596 8.66504 43.5322 8.84668 43.0576 9.22168C42.5889 9.59082 42.2871 10.0771 42.1523 10.6807L41.0713 17H39.4717L40.5264 10.7422C40.6025 10.0918 40.5029 9.59082 40.2275 9.23926C39.958 8.8877 39.5361 8.70605 38.9619 8.69434C37.9717 8.6709 37.1836 9.12207 36.5977 10.0479L35.3936 17H33.8027L35.4551 7.49023L36.9492 7.48145Z" transform="translate(482 74)" fill="black"/>
<path d="M0.729492 12.2275C0.84668 11.2607 1.11328 10.3877 1.5293 9.6084C1.94531 8.8291 2.45801 8.24609 3.06738 7.85938C3.67676 7.47266 4.34766 7.28809 5.08008 7.30566C6.14062 7.3291 6.95508 7.71582 7.52344 8.46582L8.4375 3.5H10.0283L7.69043 17H6.24023L6.40723 15.9805C5.65723 16.8008 4.73145 17.1992 3.62988 17.1758C2.75098 17.1523 2.05078 16.8096 1.5293 16.1475C1.00781 15.4795 0.726562 14.5859 0.685547 13.4668C0.667969 13.1211 0.682617 12.708 0.729492 12.2275ZM2.25879 13.1416C2.24121 13.9795 2.39062 14.6299 2.70703 15.0928C3.02344 15.5557 3.48633 15.793 4.0957 15.8047C5.01562 15.8457 5.83301 15.3828 6.54785 14.416L7.30371 10.0215C6.95215 9.1543 6.31348 8.70898 5.3877 8.68555C4.76074 8.66797 4.20703 8.8584 3.72656 9.25684C3.25195 9.64941 2.88867 10.2031 2.63672 10.918C2.39062 11.627 2.26465 12.3682 2.25879 13.1416ZM16.0225 17C15.9814 16.8301 15.9609 16.6631 15.9609 16.499L15.9873 15.998C15.1143 16.8066 14.1885 17.1992 13.21 17.1758C12.3721 17.1641 11.6895 16.9004 11.1621 16.3848C10.6406 15.8633 10.4033 15.2129 10.4502 14.4336C10.5088 13.4258 10.9482 12.6406 11.7686 12.0781C12.5947 11.5098 13.6787 11.2256 15.0205 11.2256L16.6816 11.2344L16.7871 10.4785C16.8457 9.91016 16.7344 9.46191 16.4531 9.13379C16.1777 8.7998 15.7617 8.62695 15.2051 8.61523C14.6602 8.60352 14.1768 8.73828 13.7549 9.01953C13.3389 9.29492 13.084 9.66113 12.9902 10.1182L11.3906 10.127C11.4434 9.57031 11.6602 9.07812 12.041 8.65039C12.4219 8.2168 12.9111 7.88281 13.5088 7.64844C14.1064 7.4082 14.7246 7.29395 15.3633 7.30566C16.3535 7.3291 17.124 7.63086 17.6748 8.21094C18.2256 8.78516 18.457 9.5498 18.3691 10.5049L17.5957 15.2158L17.5518 15.8926C17.54 16.2148 17.5752 16.5342 17.6572 16.8506L17.6396 17H16.0225ZM13.5264 15.7695C14.0361 15.7812 14.5166 15.6611 14.9678 15.4092C15.4248 15.1514 15.8174 14.7969 16.1455 14.3457L16.4883 12.3857L15.2842 12.377C14.2822 12.377 13.5146 12.5352 12.9814 12.8516C12.4482 13.168 12.1465 13.6162 12.0762 14.1963C12.0234 14.6416 12.126 15.0137 12.3838 15.3125C12.6475 15.6055 13.0283 15.7578 13.5264 15.7695ZM22.957 7.48145L22.7285 8.68555C23.584 7.74805 24.5566 7.29102 25.6465 7.31445C26.543 7.33789 27.2051 7.64844 27.6328 8.24609C28.0605 8.84375 28.2188 9.68457 28.1074 10.7686L27.0703 17H25.4795L26.5254 10.7422C26.5605 10.4551 26.5635 10.1885 26.5342 9.94238C26.4346 9.12207 25.9512 8.70312 25.084 8.68555C24.1289 8.66797 23.291 9.17773 22.5703 10.2148L21.3926 17H19.8018L21.4541 7.49023L22.957 7.48145ZM33.5391 15.8574C34.1074 15.8691 34.6201 15.7051 35.0771 15.3652C35.5342 15.0195 35.833 14.5684 35.9736 14.0117L37.4766 14.0029C37.3887 14.6006 37.1484 15.1455 36.7559 15.6377C36.3691 16.1299 35.8799 16.5137 35.2881 16.7891C34.6963 17.0645 34.0898 17.1934 33.4688 17.1758C32.6777 17.1641 32.0068 16.959 31.4561 16.5605C30.9111 16.1562 30.5098 15.5967 30.252 14.8818C29.9941 14.1611 29.9062 13.3525 29.9883 12.4561L30.0322 12.0166C30.1436 11.1025 30.4102 10.2852 30.832 9.56445C31.2539 8.84375 31.8047 8.28418 32.4844 7.88574C33.1641 7.48145 33.9141 7.29102 34.7344 7.31445C35.7305 7.33789 36.5273 7.67188 37.125 8.31641C37.7227 8.96094 38.0215 9.77832 38.0215 10.7686L36.5361 10.7598C36.5244 10.1387 36.3516 9.6377 36.0176 9.25684C35.6836 8.87012 35.2324 8.66504 34.6641 8.6416C33.8379 8.62402 33.1494 8.93164 32.5986 9.56445C32.0537 10.1973 31.7139 11.082 31.5791 12.2188L31.5527 12.4473C31.5176 12.8223 31.5117 13.209 31.5352 13.6074C31.5762 14.293 31.7695 14.835 32.1152 15.2334C32.4609 15.6318 32.9355 15.8398 33.5391 15.8574ZM42.8643 17.1758C41.6807 17.1523 40.7549 16.7158 40.0869 15.8662C39.4189 15.0166 39.1377 13.9297 39.2432 12.6055L39.2871 12.2275C39.3867 11.2842 39.665 10.4229 40.1221 9.64355C40.585 8.86426 41.1475 8.27832 41.8096 7.88574C42.4717 7.4873 43.1865 7.29688 43.9541 7.31445C44.9326 7.33789 45.7002 7.66309 46.2568 8.29004C46.8135 8.91699 47.1182 9.7666 47.1709 10.8389C47.1885 11.2197 47.1768 11.6006 47.1357 11.9814L47.0391 12.7109H40.8252C40.7197 13.5723 40.8604 14.3047 41.2471 14.9082C41.6396 15.5117 42.2227 15.8252 42.9961 15.8486C43.9336 15.8721 44.8008 15.4502 45.5977 14.583L46.5117 15.3564C46.1133 15.9307 45.5977 16.3818 44.9648 16.71C44.3379 17.0322 43.6377 17.1875 42.8643 17.1758ZM43.875 8.6416C43.2188 8.62402 42.6445 8.84668 42.1523 9.30957C41.666 9.77246 41.2793 10.4609 40.9922 11.375L45.6152 11.3838L45.6504 11.2432C45.7441 10.5049 45.624 9.89258 45.29 9.40625C44.9619 8.91406 44.4902 8.65918 43.875 8.6416Z" transform="translate(37 161)" fill="black"/>
<path d="M6.09082 17C6.0498 16.8301 6.0293 16.6631 6.0293 16.499L6.05566 15.998C5.18262 16.8066 4.25684 17.1992 3.27832 17.1758C2.44043 17.1641 1.75781 16.9004 1.23047 16.3848C0.708984 15.8633 0.47168 15.2129 0.518555 14.4336C0.577148 13.4258 1.0166 12.6406 1.83691 12.0781C2.66309 11.5098 3.74707 11.2256 5.08887 11.2256L6.75 11.2344L6.85547 10.4785C6.91406 9.91016 6.80273 9.46191 6.52148 9.13379C6.24609 8.7998 5.83008 8.62695 5.27344 8.61523C4.72852 8.60352 4.24512 8.73828 3.82324 9.01953C3.40723 9.29492 3.15234 9.66113 3.05859 10.1182L1.45898 10.127C1.51172 9.57031 1.72852 9.07812 2.10938 8.65039C2.49023 8.2168 2.97949 7.88281 3.57715 7.64844C4.1748 7.4082 4.79297 7.29395 5.43164 7.30566C6.42188 7.3291 7.19238 7.63086 7.74316 8.21094C8.29395 8.78516 8.52539 9.5498 8.4375 10.5049L7.66406 15.2158L7.62012 15.8926C7.6084 16.2148 7.64355 16.5342 7.72559 16.8506L7.70801 17H6.09082ZM3.59473 15.7695C4.10449 15.7812 4.58496 15.6611 5.03613 15.4092C5.49316 15.1514 5.88574 14.7969 6.21387 14.3457L6.55664 12.3857L5.35254 12.377C4.35059 12.377 3.58301 12.5352 3.0498 12.8516C2.5166 13.168 2.21484 13.6162 2.14453 14.1963C2.0918 14.6416 2.19434 15.0137 2.45215 15.3125C2.71582 15.6055 3.09668 15.7578 3.59473 15.7695ZM11.5928 17H10.0107L12.3486 3.5H13.9395L11.5928 17ZM22.8252 12.2891C22.708 13.2617 22.4414 14.1377 22.0254 14.917C21.6094 15.6963 21.1055 16.2734 20.5137 16.6484C19.9219 17.0234 19.2656 17.2021 18.5449 17.1846C17.3965 17.1611 16.5439 16.7305 15.9873 15.8926L15.6621 17H14.1943L16.541 3.5H18.1318L17.1738 8.54492C17.9355 7.70117 18.8613 7.29102 19.9512 7.31445C20.8652 7.33789 21.5771 7.6748 22.0869 8.3252C22.5967 8.97559 22.8662 9.87207 22.8955 11.0146C22.9014 11.3896 22.8838 11.7529 22.8428 12.1045L22.8252 12.2891ZM21.3135 11.3662C21.3311 10.5107 21.1875 9.85742 20.8828 9.40625C20.5781 8.94922 20.1123 8.70898 19.4854 8.68555C18.4951 8.66211 17.6572 9.16016 16.9717 10.1797L16.2598 14.3193C16.6113 15.2861 17.2705 15.7812 18.2373 15.8047C18.8584 15.8281 19.4004 15.6436 19.8633 15.251C20.332 14.8584 20.6865 14.3105 20.9268 13.6074C21.167 12.8984 21.2959 12.1514 21.3135 11.3662ZM30.1289 16.0596C29.3848 16.8271 28.4385 17.1992 27.29 17.1758C26.3818 17.1523 25.708 16.8271 25.2686 16.2002C24.835 15.5732 24.6738 14.7178 24.7852 13.6338L25.8047 7.49023H27.3955L26.3672 13.6602C26.3379 13.918 26.332 14.1699 26.3496 14.416C26.3789 14.8379 26.5049 15.1689 26.7275 15.4092C26.9502 15.6494 27.2607 15.7783 27.6592 15.7959C28.7959 15.8311 29.6748 15.3711 30.2959 14.416L31.4912 7.49023H33.082L31.4297 17H29.9268L30.1289 16.0596ZM36.9492 7.48145L36.7471 8.54492C37.5439 7.70117 38.5078 7.29102 39.6387 7.31445C40.2422 7.32617 40.752 7.46387 41.168 7.72754C41.5898 7.99121 41.8799 8.36328 42.0381 8.84375C42.9287 7.80078 43.9805 7.29102 45.1934 7.31445C46.1426 7.33789 46.8428 7.65723 47.2939 8.27246C47.7451 8.8877 47.9121 9.71387 47.7949 10.751L46.749 17H45.167L46.2041 10.7334C46.2393 10.4287 46.2393 10.1504 46.2041 9.89844C46.0928 9.10156 45.5713 8.69434 44.6396 8.67676C44.0596 8.66504 43.5322 8.84668 43.0576 9.22168C42.5889 9.59082 42.2871 10.0771 42.1523 10.6807L41.0713 17H39.4717L40.5264 10.7422C40.6025 10.0918 40.5029 9.59082 40.2275 9.23926C39.958 8.8877 39.5361 8.70605 38.9619 8.69434C37.9717 8.6709 37.1836 9.12207 36.5977 10.0479L35.3936 17H33.8027L35.4551 7.49023L36.9492 7.48145Z" transform="translate(123 161)" fill="black"/>
<path d="M3.42773 7.48145L3.19922 8.68555C4.05469 7.74805 5.02734 7.29102 6.11719 7.31445C7.01367 7.33789 7.67578 7.64844 8.10352 8.24609C8.53125 8.84375 8.68945 9.68457 8.57812 10.7686L7.54102 17H5.9502L6.99609 10.7422C7.03125 10.4551 7.03418 10.1885 7.00488 9.94238C6.90527 9.12207 6.42188 8.70312 5.55469 8.68555C4.59961 8.66797 3.76172 9.17773 3.04102 10.2148L1.86328 17H0.272461L1.9248 7.49023L3.42773 7.48145ZM15.8115 17C15.7705 16.8301 15.75 16.6631 15.75 16.499L15.7764 15.998C14.9033 16.8066 13.9775 17.1992 12.999 17.1758C12.1611 17.1641 11.4785 16.9004 10.9512 16.3848C10.4297 15.8633 10.1924 15.2129 10.2393 14.4336C10.2979 13.4258 10.7373 12.6406 11.5576 12.0781C12.3838 11.5098 13.4678 11.2256 14.8096 11.2256L16.4707 11.2344L16.5762 10.4785C16.6348 9.91016 16.5234 9.46191 16.2422 9.13379C15.9668 8.7998 15.5508 8.62695 14.9941 8.61523C14.4492 8.60352 13.9658 8.73828 13.5439 9.01953C13.1279 9.29492 12.873 9.66113 12.7793 10.1182L11.1797 10.127C11.2324 9.57031 11.4492 9.07812 11.8301 8.65039C12.2109 8.2168 12.7002 7.88281 13.2979 7.64844C13.8955 7.4082 14.5137 7.29395 15.1523 7.30566C16.1426 7.3291 16.9131 7.63086 17.4639 8.21094C18.0146 8.78516 18.2461 9.5498 18.1582 10.5049L17.3848 15.2158L17.3408 15.8926C17.3291 16.2148 17.3643 16.5342 17.4463 16.8506L17.4287 17H15.8115ZM13.3154 15.7695C13.8252 15.7812 14.3057 15.6611 14.7568 15.4092C15.2139 15.1514 15.6064 14.7969 15.9346 14.3457L16.2773 12.3857L15.0732 12.377C14.0713 12.377 13.3037 12.5352 12.7705 12.8516C12.2373 13.168 11.9355 13.6162 11.8652 14.1963C11.8125 14.6416 11.915 15.0137 12.1729 15.3125C12.4365 15.6055 12.8174 15.7578 13.3154 15.7695ZM22.7285 7.48145L22.5264 8.54492C23.3232 7.70117 24.2871 7.29102 25.418 7.31445C26.0215 7.32617 26.5312 7.46387 26.9473 7.72754C27.3691 7.99121 27.6592 8.36328 27.8174 8.84375C28.708 7.80078 29.7598 7.29102 30.9727 7.31445C31.9219 7.33789 32.6221 7.65723 33.0732 8.27246C33.5244 8.8877 33.6914 9.71387 33.5742 10.751L32.5283 17H30.9463L31.9834 10.7334C32.0186 10.4287 32.0186 10.1504 31.9834 9.89844C31.8721 9.10156 31.3506 8.69434 30.4189 8.67676C29.8389 8.66504 29.3115 8.84668 28.8369 9.22168C28.3682 9.59082 28.0664 10.0771 27.9316 10.6807L26.8506 17H25.251L26.3057 10.7422C26.3818 10.0918 26.2822 9.59082 26.0068 9.23926C25.7373 8.8877 25.3154 8.70605 24.7412 8.69434C23.751 8.6709 22.9629 9.12207 22.377 10.0479L21.1729 17H19.582L21.2344 7.49023L22.7285 7.48145ZM39.1025 17.1758C37.9189 17.1523 36.9932 16.7158 36.3252 15.8662C35.6572 15.0166 35.376 13.9297 35.4814 12.6055L35.5254 12.2275C35.625 11.2842 35.9033 10.4229 36.3604 9.64355C36.8232 8.86426 37.3857 8.27832 38.0479 7.88574C38.71 7.4873 39.4248 7.29688 40.1924 7.31445C41.1709 7.33789 41.9385 7.66309 42.4951 8.29004C43.0518 8.91699 43.3564 9.7666 43.4092 10.8389C43.4268 11.2197 43.415 11.6006 43.374 11.9814L43.2773 12.7109H37.0635C36.958 13.5723 37.0986 14.3047 37.4854 14.9082C37.8779 15.5117 38.4609 15.8252 39.2344 15.8486C40.1719 15.8721 41.0391 15.4502 41.8359 14.583L42.75 15.3564C42.3516 15.9307 41.8359 16.3818 41.2031 16.71C40.5762 17.0322 39.876 17.1875 39.1025 17.1758ZM40.1133 8.6416C39.457 8.62402 38.8828 8.84668 38.3906 9.30957C37.9043 9.77246 37.5176 10.4609 37.2305 11.375L41.8535 11.3838L41.8887 11.2432C41.9824 10.5049 41.8623 9.89258 41.5283 9.40625C41.2002 8.91406 40.7285 8.65918 40.1133 8.6416Z" transform="translate(123 189)" fill="black"/>
<path d="M3.42773 7.48145L3.19922 8.68555C4.05469 7.74805 5.02734 7.29102 6.11719 7.31445C7.01367 7.33789 7.67578 7.64844 8.10352 8.24609C8.53125 8.84375 8.68945 9.68457 8.57812 10.7686L7.54102 17H5.9502L6.99609 10.7422C7.03125 10.4551 7.03418 10.1885 7.00488 9.94238C6.90527 9.12207 6.42188 8.70312 5.55469 8.68555C4.59961 8.66797 3.76172 9.17773 3.04102 10.2148L1.86328 17H0.272461L1.9248 7.49023L3.42773 7.48145ZM15.8115 17C15.7705 16.8301 15.75 16.6631 15.75 16.499L15.7764 15.998C14.9033 16.8066 13.9775 17.1992 12.999 17.1758C12.1611 17.1641 11.4785 16.9004 10.9512 16.3848C10.4297 15.8633 10.1924 15.2129 10.2393 14.4336C10.2979 13.4258 10.7373 12.6406 11.5576 12.0781C12.3838 11.5098 13.4678 11.2256 14.8096 11.2256L16.4707 11.2344L16.5762 10.4785C16.6348 9.91016 16.5234 9.46191 16.2422 9.13379C15.9668 8.7998 15.5508 8.62695 14.9941 8.61523C14.4492 8.60352 13.9658 8.73828 13.5439 9.01953C13.1279 9.29492 12.873 9.66113 12.7793 10.1182L11.1797 10.127C11.2324 9.57031 11.4492 9.07812 11.8301 8.65039C12.2109 8.2168 12.7002 7.88281 13.2979 7.64844C13.8955 7.4082 14.5137 7.29395 15.1523 7.30566C16.1426 7.3291 16.9131 7.63086 17.4639 8.21094C18.0146 8.78516 18.2461 9.5498 18.1582 10.5049L17.3848 15.2158L17.3408 15.8926C17.3291 16.2148 17.3643 16.5342 17.4463 16.8506L17.4287 17H15.8115ZM13.3154 15.7695C13.8252 15.7812 14.3057 15.6611 14.7568 15.4092C15.2139 15.1514 15.6064 14.7969 15.9346 14.3457L16.2773 12.3857L15.0732 12.377C14.0713 12.377 13.3037 12.5352 12.7705 12.8516C12.2373 13.168 11.9355 13.6162 11.8652 14.1963C11.8125 14.6416 11.915 15.0137 12.1729 15.3125C12.4365 15.6055 12.8174 15.7578 13.3154 15.7695ZM22.7285 7.48145L22.5264 8.54492C23.3232 7.70117 24.2871 7.29102 25.418 7.31445C26.0215 7.32617 26.5312 7.46387 26.9473 7.72754C27.3691 7.99121 27.6592 8.36328 27.8174 8.84375C28.708 7.80078 29.7598 7.29102 30.9727 7.31445C31.9219 7.33789 32.6221 7.65723 33.0732 8.27246C33.5244 8.8877 33.6914 9.71387 33.5742 10.751L32.5283 17H30.9463L31.9834 10.7334C32.0186 10.4287 32.0186 10.1504 31.9834 9.89844C31.8721 9.10156 31.3506 8.69434 30.4189 8.67676C29.8389 8.66504 29.3115 8.84668 28.8369 9.22168C28.3682 9.59082 28.0664 10.0771 27.9316 10.6807L26.8506 17H25.251L26.3057 10.7422C26.3818 10.0918 26.2822 9.59082 26.0068 9.23926C25.7373 8.8877 25.3154 8.70605 24.7412 8.69434C23.751 8.6709 22.9629 9.12207 22.377 10.0479L21.1729 17H19.582L21.2344 7.49023L22.7285 7.48145ZM39.1025 17.1758C37.9189 17.1523 36.9932 16.7158 36.3252 15.8662C35.6572 15.0166 35.376 13.9297 35.4814 12.6055L35.5254 12.2275C35.625 11.2842 35.9033 10.4229 36.3604 9.64355C36.8232 8.86426 37.3857 8.27832 38.0479 7.88574C38.71 7.4873 39.4248 7.29688 40.1924 7.31445C41.1709 7.33789 41.9385 7.66309 42.4951 8.29004C43.0518 8.91699 43.3564 9.7666 43.4092 10.8389C43.4268 11.2197 43.415 11.6006 43.374 11.9814L43.2773 12.7109H37.0635C36.958 13.5723 37.0986 14.3047 37.4854 14.9082C37.8779 15.5117 38.4609 15.8252 39.2344 15.8486C40.1719 15.8721 41.0391 15.4502 41.8359 14.583L42.75 15.3564C42.3516 15.9307 41.8359 16.3818 41.2031 16.71C40.5762 17.0322 39.876 17.1875 39.1025 17.1758ZM40.1133 8.6416C39.457 8.62402 38.8828 8.84668 38.3906 9.30957C37.9043 9.77246 37.5176 10.4609 37.2305 11.375L41.8535 11.3838L41.8887 11.2432C41.9824 10.5049 41.8623 9.89258 41.5283 9.40625C41.2002 8.91406 40.7285 8.65918 40.1133 8.6416Z" transform="translate(484 97)" fill="black"/>
</svg>
