<svg width="672" height="138" viewBox="0 0 672 138" version="1.1" xmlns="http://www.w3.org/2000/svg" xmlns:xlink="http://www.w3.org/1999/xlink">
<title>Frame</title>
<desc>Created using Figma</desc>
<g id="Canvas" transform="translate(196 245)">
<clipPath id="clip-0" clip-rule="evenodd">
<path d="M -196 -245L 476 -245L 476 -107L -196 -107L -196 -245Z" fill="#FFFFFF"/>
</clipPath>
<g id="Frame" clip-path="url(#clip-0)">
<path d="M -196 -245L 476 -245L 476 -107L -196 -107L -196 -245Z" fill="#FFFFFF"/>
<g id="Input">
<use xlink:href="#path0_fill" transform="translate(-183 -193)"/>
</g>
<g id="Output">
<use xlink:href="#path1_fill" transform="translate(412 -193)"/>
</g>
<g id="Arrow">
<use xlink:href="#path2_stroke" transform="matrix(1 3.46945e-18 -3.46945e-18 1 -137.005 -180.5)"/>
</g>
<g id="Arrow">
<use xlink:href="#path2_stroke" transform="matrix(1 3.46945e-18 -3.46945e-18 1 349 -181)"/>
</g>
<g id="Rectangle">
<use xlink:href="#path3_fill" transform="translate(-88 -231)" fill="#FFFFFF"/>
<mask id="mask0_outline_ins">
<use xlink:href="#path3_fill" fill="white" transform="translate(-88 -231)"/>
</mask>
<g mask="url(#mask0_outline_ins)">
<use xlink:href="#path4_stroke_2x" transform="translate(-88 -231)"/>
</g>
</g>
<g id="Function 1">
<use xlink:href="#path5_fill" transform="translate(-74 -195)"/>
</g>
<g id="Arrow">
<use xlink:href="#path2_stroke" transform="matrix(1 3.46945e-18 -3.46945e-18 1 25 -180.5)"/>
</g>
<g id="Rectangle">
<use xlink:href="#path3_fill" transform="translate(74.0051 -231)" fill="#FFFFFF"/>
<mask id="mask1_outline_ins">
<use xlink:href="#path3_fill" fill="white" transform="translate(74.0051 -231)"/>
</mask>
<g mask="url(#mask1_outline_ins)">
<use xlink:href="#path4_stroke_2x" transform="translate(74.0051 -231)"/>
</g>
</g>
<g id="Function 2">
<use xlink:href="#path6_fill" transform="translate(88.0051 -195)"/>
</g>
<g id="Arrow">
<use xlink:href="#path2_stroke" transform="matrix(1 3.46945e-18 -3.46945e-18 1 187 -180.5)"/>
</g>
<g id="Rectangle">
<use xlink:href="#path3_fill" transform="translate(236.005 -231)" fill="#FFFFFF"/>
<mask id="mask2_outline_ins">
<use xlink:href="#path3_fill" fill="white" transform="translate(236.005 -231)"/>
</mask>
<g mask="url(#mask2_outline_ins)">
<use xlink:href="#path4_stroke_2x" transform="translate(236.005 -231)"/>
</g>
</g>
<g id="Function 3">
<use xlink:href="#path7_fill" transform="translate(250.005 -195)"/>
</g>
</g>
</g>
<defs>
<path id="path0_fill" d="M 3.2959 17L 1.6084 17L 1.6084 4.20312L 3.2959 4.20312L 3.2959 17ZM 7.67285 7.49023L 7.72559 8.68555C 8.45215 7.77148 9.40137 7.31445 10.5732 7.31445C 12.583 7.31445 13.5967 8.44824 13.6143 10.7158L 13.6143 17L 11.9883 17L 11.9883 10.707C 11.9824 10.0215 11.8242 9.51465 11.5137 9.18652C 11.209 8.8584 10.7314 8.69434 10.0811 8.69434C 9.55371 8.69434 9.09082 8.83496 8.69238 9.11621C 8.29395 9.39746 7.9834 9.7666 7.76074 10.2236L 7.76074 17L 6.13477 17L 6.13477 7.49023L 7.67285 7.49023ZM 24.0996 12.3506C 24.0996 13.7979 23.7686 14.9639 23.1064 15.8486C 22.4443 16.7334 21.5479 17.1758 20.417 17.1758C 19.2627 17.1758 18.3545 16.8096 17.6924 16.0771L 17.6924 20.6562L 16.0664 20.6562L 16.0664 7.49023L 17.5518 7.49023L 17.6309 8.54492C 18.293 7.72461 19.2129 7.31445 20.3906 7.31445C 21.5332 7.31445 22.4355 7.74512 23.0977 8.60645C 23.7656 9.46777 24.0996 10.666 24.0996 12.2012L 24.0996 12.3506ZM 22.4736 12.166C 22.4736 11.0938 22.2451 10.2471 21.7881 9.62598C 21.3311 9.00488 20.7041 8.69434 19.9072 8.69434C 18.9229 8.69434 18.1846 9.13086 17.6924 10.0039L 17.6924 14.5479C 18.1787 15.415 18.9229 15.8486 19.9248 15.8486C 20.7041 15.8486 21.3223 15.541 21.7793 14.9258C 22.2422 14.3047 22.4736 13.3848 22.4736 12.166ZM 32.0449 16.0596C 31.4121 16.8037 30.4834 17.1758 29.2588 17.1758C 28.2451 17.1758 27.4717 16.8828 26.9385 16.2969C 26.4111 15.7051 26.1445 14.832 26.1387 13.6777L 26.1387 7.49023L 27.7646 7.49023L 27.7646 13.6338C 27.7646 15.0752 28.3506 15.7959 29.5225 15.7959C 30.7646 15.7959 31.5908 15.333 32.001 14.4072L 32.001 7.49023L 33.627 7.49023L 33.627 17L 32.0801 17L 32.0449 16.0596ZM 38.3115 5.1875L 38.3115 7.49023L 40.0869 7.49023L 40.0869 8.74707L 38.3115 8.74707L 38.3115 14.6445C 38.3115 15.0254 38.3906 15.3125 38.5488 15.5059C 38.707 15.6934 38.9766 15.7871 39.3574 15.7871C 39.5449 15.7871 39.8027 15.752 40.1309 15.6816L 40.1309 17C 39.7031 17.1172 39.2871 17.1758 38.8828 17.1758C 38.1562 17.1758 37.6084 16.9561 37.2393 16.5166C 36.8701 16.0771 36.6855 15.4531 36.6855 14.6445L 36.6855 8.74707L 34.9541 8.74707L 34.9541 7.49023L 36.6855 7.49023L 36.6855 5.1875L 38.3115 5.1875Z"/>
<path id="path1_fill" d="M 11.3291 11.0146C 11.3291 12.2686 11.1182 13.3643 10.6963 14.3018C 10.2744 15.2334 9.67676 15.9453 8.90332 16.4375C 8.12988 16.9297 7.22754 17.1758 6.19629 17.1758C 5.18848 17.1758 4.29492 16.9297 3.51562 16.4375C 2.73633 15.9395 2.12988 15.2334 1.69629 14.3193C 1.26855 13.3994 1.04883 12.3359 1.03711 11.1289L 1.03711 10.2061C 1.03711 8.97559 1.25098 7.88867 1.67871 6.94531C 2.10645 6.00195 2.70996 5.28125 3.48926 4.7832C 4.27441 4.2793 5.1709 4.02734 6.17871 4.02734C 7.2041 4.02734 8.10645 4.27637 8.88574 4.77441C 9.6709 5.2666 10.2744 5.98438 10.6963 6.92773C 11.1182 7.86523 11.3291 8.95801 11.3291 10.2061L 11.3291 11.0146ZM 9.65039 10.1885C 9.65039 8.6709 9.3457 7.50781 8.73633 6.69922C 8.12695 5.88477 7.27441 5.47754 6.17871 5.47754C 5.1123 5.47754 4.27148 5.88477 3.65625 6.69922C 3.04688 7.50781 2.7334 8.63281 2.71582 10.0742L 2.71582 11.0146C 2.71582 12.4854 3.02344 13.6426 3.63867 14.4863C 4.25977 15.3242 5.1123 15.7432 6.19629 15.7432C 7.28613 15.7432 8.12988 15.3477 8.72754 14.5566C 9.3252 13.7598 9.63281 12.6201 9.65039 11.1377L 9.65039 10.1885ZM 19.4766 16.0596C 18.8438 16.8037 17.915 17.1758 16.6904 17.1758C 15.6768 17.1758 14.9033 16.8828 14.3701 16.2969C 13.8428 15.7051 13.5762 14.832 13.5703 13.6777L 13.5703 7.49023L 15.1963 7.49023L 15.1963 13.6338C 15.1963 15.0752 15.7822 15.7959 16.9541 15.7959C 18.1963 15.7959 19.0225 15.333 19.4326 14.4072L 19.4326 7.49023L 21.0586 7.49023L 21.0586 17L 19.5117 17L 19.4766 16.0596ZM 25.7432 5.1875L 25.7432 7.49023L 27.5186 7.49023L 27.5186 8.74707L 25.7432 8.74707L 25.7432 14.6445C 25.7432 15.0254 25.8223 15.3125 25.9805 15.5059C 26.1387 15.6934 26.4082 15.7871 26.7891 15.7871C 26.9766 15.7871 27.2344 15.752 27.5625 15.6816L 27.5625 17C 27.1348 17.1172 26.7188 17.1758 26.3145 17.1758C 25.5879 17.1758 25.04 16.9561 24.6709 16.5166C 24.3018 16.0771 24.1172 15.4531 24.1172 14.6445L 24.1172 8.74707L 22.3857 8.74707L 22.3857 7.49023L 24.1172 7.49023L 24.1172 5.1875L 25.7432 5.1875ZM 37.459 12.3506C 37.459 13.7979 37.1279 14.9639 36.4658 15.8486C 35.8037 16.7334 34.9072 17.1758 33.7764 17.1758C 32.6221 17.1758 31.7139 16.8096 31.0518 16.0771L 31.0518 20.6562L 29.4258 20.6562L 29.4258 7.49023L 30.9111 7.49023L 30.9902 8.54492C 31.6523 7.72461 32.5723 7.31445 33.75 7.31445C 34.8926 7.31445 35.7949 7.74512 36.457 8.60645C 37.125 9.46777 37.459 10.666 37.459 12.2012L 37.459 12.3506ZM 35.833 12.166C 35.833 11.0938 35.6045 10.2471 35.1475 9.62598C 34.6904 9.00488 34.0635 8.69434 33.2666 8.69434C 32.2822 8.69434 31.5439 9.13086 31.0518 10.0039L 31.0518 14.5479C 31.5381 15.415 32.2822 15.8486 33.2842 15.8486C 34.0635 15.8486 34.6816 15.541 35.1387 14.9258C 35.6016 14.3047 35.833 13.3848 35.833 12.166ZM 45.4043 16.0596C 44.7715 16.8037 43.8428 17.1758 42.6182 17.1758C 41.6045 17.1758 40.8311 16.8828 40.2979 16.2969C 39.7705 15.7051 39.5039 14.832 39.498 13.6777L 39.498 7.49023L 41.124 7.49023L 41.124 13.6338C 41.124 15.0752 41.71 15.7959 42.8818 15.7959C 44.124 15.7959 44.9502 15.333 45.3604 14.4072L 45.3604 7.49023L 46.9863 7.49023L 46.9863 17L 45.4395 17L 45.4043 16.0596ZM 51.6709 5.1875L 51.6709 7.49023L 53.4463 7.49023L 53.4463 8.74707L 51.6709 8.74707L 51.6709 14.6445C 51.6709 15.0254 51.75 15.3125 51.9082 15.5059C 52.0664 15.6934 52.3359 15.7871 52.7168 15.7871C 52.9043 15.7871 53.1621 15.752 53.4902 15.6816L 53.4902 17C 53.0625 17.1172 52.6465 17.1758 52.2422 17.1758C 51.5156 17.1758 50.9678 16.9561 50.5986 16.5166C 50.2295 16.0771 50.0449 15.4531 50.0449 14.6445L 50.0449 8.74707L 48.3135 8.74707L 48.3135 7.49023L 50.0449 7.49023L 50.0449 5.1875L 51.6709 5.1875Z"/>
<path id="path2_stroke" d="M 49.3638 0.353553C 49.559 0.158291 49.559 -0.158291 49.3638 -0.353553L 46.1818 -3.53553C 45.9865 -3.7308 45.6699 -3.7308 45.4747 -3.53553C 45.2794 -3.34027 45.2794 -3.02369 45.4747 -2.82843L 48.3031 0L 45.4747 2.82843C 45.2794 3.02369 45.2794 3.34027 45.4747 3.53553C 45.6699 3.7308 45.9865 3.7308 46.1818 3.53553L 49.3638 0.353553ZM 0 0.5L 49.0102 0.5L 49.0102 -0.5L 0 -0.5L 0 0.5Z"/>
<path id="path3_fill" d="M 0 0L 113 0L 113 98L 0 98L 0 0Z"/>
<path id="path4_stroke_2x" d="M 0 0L 0 -1L -1 -1L -1 0L 0 0ZM 113 0L 114 0L 114 -1L 113 -1L 113 0ZM 113 98L 113 99L 114 99L 114 98L 113 98ZM 0 98L -1 98L -1 99L 0 99L 0 98ZM 0 1L 113 1L 113 -1L 0 -1L 0 1ZM 112 0L 112 98L 114 98L 114 0L 112 0ZM 113 97L 0 97L 0 99L 113 99L 113 97ZM 1 98L 1 0L -1 0L -1 98L 1 98Z"/>
<path id="path5_fill" d="M 8.54297 11.3486L 3.17285 11.3486L 3.17285 17L 1.48535 17L 1.48535 4.20312L 9.41309 4.20312L 9.41309 5.5918L 3.17285 5.5918L 3.17285 9.96875L 8.54297 9.96875L 8.54297 11.3486ZM 16.8574 16.0596C 16.2246 16.8037 15.2959 17.1758 14.0713 17.1758C 13.0576 17.1758 12.2842 16.8828 11.751 16.2969C 11.2236 15.7051 10.957 14.832 10.9512 13.6777L 10.9512 7.49023L 12.5771 7.49023L 12.5771 13.6338C 12.5771 15.0752 13.1631 15.7959 14.335 15.7959C 15.5771 15.7959 16.4033 15.333 16.8135 14.4072L 16.8135 7.49023L 18.4395 7.49023L 18.4395 17L 16.8926 17L 16.8574 16.0596ZM 22.4561 7.49023L 22.5088 8.68555C 23.2354 7.77148 24.1846 7.31445 25.3564 7.31445C 27.3662 7.31445 28.3799 8.44824 28.3975 10.7158L 28.3975 17L 26.7715 17L 26.7715 10.707C 26.7656 10.0215 26.6074 9.51465 26.2969 9.18652C 25.9922 8.8584 25.5146 8.69434 24.8643 8.69434C 24.3369 8.69434 23.874 8.83496 23.4756 9.11621C 23.0771 9.39746 22.7666 9.7666 22.5439 10.2236L 22.5439 17L 20.918 17L 20.918 7.49023L 22.4561 7.49023ZM 34.6641 15.8486C 35.2441 15.8486 35.751 15.6729 36.1846 15.3213C 36.6182 14.9697 36.8584 14.5303 36.9053 14.0029L 38.4434 14.0029C 38.4141 14.5479 38.2266 15.0664 37.8809 15.5586C 37.5352 16.0508 37.0723 16.4434 36.4922 16.7363C 35.918 17.0293 35.3086 17.1758 34.6641 17.1758C 33.3691 17.1758 32.3379 16.7451 31.5703 15.8838C 30.8086 15.0166 30.4277 13.833 30.4277 12.333L 30.4277 12.0605C 30.4277 11.1348 30.5977 10.3115 30.9375 9.59082C 31.2773 8.87012 31.7637 8.31055 32.3965 7.91211C 33.0352 7.51367 33.7881 7.31445 34.6553 7.31445C 35.7217 7.31445 36.6064 7.63379 37.3096 8.27246C 38.0186 8.91113 38.3965 9.74023 38.4434 10.7598L 36.9053 10.7598C 36.8584 10.1445 36.624 9.64062 36.2021 9.24805C 35.7861 8.84961 35.2705 8.65039 34.6553 8.65039C 33.8291 8.65039 33.1875 8.94922 32.7305 9.54688C 32.2793 10.1387 32.0537 10.9971 32.0537 12.1221L 32.0537 12.4297C 32.0537 13.5254 32.2793 14.3691 32.7305 14.9609C 33.1816 15.5527 33.8262 15.8486 34.6641 15.8486ZM 42.4775 5.1875L 42.4775 7.49023L 44.2529 7.49023L 44.2529 8.74707L 42.4775 8.74707L 42.4775 14.6445C 42.4775 15.0254 42.5566 15.3125 42.7148 15.5059C 42.873 15.6934 43.1426 15.7871 43.5234 15.7871C 43.7109 15.7871 43.9688 15.752 44.2969 15.6816L 44.2969 17C 43.8691 17.1172 43.4531 17.1758 43.0488 17.1758C 42.3223 17.1758 41.7744 16.9561 41.4053 16.5166C 41.0361 16.0771 40.8516 15.4531 40.8516 14.6445L 40.8516 8.74707L 39.1201 8.74707L 39.1201 7.49023L 40.8516 7.49023L 40.8516 5.1875L 42.4775 5.1875ZM 47.9268 17L 46.3008 17L 46.3008 7.49023L 47.9268 7.49023L 47.9268 17ZM 46.1689 4.96777C 46.1689 4.7041 46.248 4.48145 46.4062 4.2998C 46.5703 4.11816 46.8105 4.02734 47.127 4.02734C 47.4434 4.02734 47.6836 4.11816 47.8477 4.2998C 48.0117 4.48145 48.0938 4.7041 48.0938 4.96777C 48.0938 5.23145 48.0117 5.45117 47.8477 5.62695C 47.6836 5.80273 47.4434 5.89062 47.127 5.89062C 46.8105 5.89062 46.5703 5.80273 46.4062 5.62695C 46.248 5.45117 46.1689 5.23145 46.1689 4.96777ZM 50.1064 12.1572C 50.1064 11.2256 50.2881 10.3877 50.6514 9.64355C 51.0205 8.89941 51.5303 8.3252 52.1807 7.9209C 52.8369 7.5166 53.584 7.31445 54.4219 7.31445C 55.7168 7.31445 56.7627 7.7627 57.5596 8.65918C 58.3623 9.55566 58.7637 10.748 58.7637 12.2363L 58.7637 12.3506C 58.7637 13.2764 58.585 14.1084 58.2275 14.8467C 57.876 15.5791 57.3691 16.1504 56.707 16.5605C 56.0508 16.9707 55.2949 17.1758 54.4395 17.1758C 53.1504 17.1758 52.1045 16.7275 51.3018 15.8311C 50.5049 14.9346 50.1064 13.748 50.1064 12.2715L 50.1064 12.1572ZM 51.7412 12.3506C 51.7412 13.4053 51.9844 14.252 52.4707 14.8906C 52.9629 15.5293 53.6191 15.8486 54.4395 15.8486C 55.2656 15.8486 55.9219 15.5264 56.4082 14.8818C 56.8945 14.2314 57.1377 13.3232 57.1377 12.1572C 57.1377 11.1143 56.8887 10.2705 56.3906 9.62598C 55.8984 8.97559 55.2422 8.65039 54.4219 8.65039C 53.6191 8.65039 52.9717 8.96973 52.4795 9.6084C 51.9873 10.2471 51.7412 11.1611 51.7412 12.3506ZM 62.3408 7.49023L 62.3936 8.68555C 63.1201 7.77148 64.0693 7.31445 65.2412 7.31445C 67.251 7.31445 68.2646 8.44824 68.2822 10.7158L 68.2822 17L 66.6562 17L 66.6562 10.707C 66.6504 10.0215 66.4922 9.51465 66.1816 9.18652C 65.877 8.8584 65.3994 8.69434 64.749 8.69434C 64.2217 8.69434 63.7588 8.83496 63.3604 9.11621C 62.9619 9.39746 62.6514 9.7666 62.4287 10.2236L 62.4287 17L 60.8027 17L 60.8027 7.49023L 62.3408 7.49023ZM 80.376 17L 78.7412 17L 78.7412 6.16309L 75.4629 7.36719L 75.4629 5.89062L 80.1211 4.1416L 80.376 4.1416L 80.376 17Z"/>
<path id="path6_fill" d="M 8.54297 11.3486L 3.17285 11.3486L 3.17285 17L 1.48535 17L 1.48535 4.20312L 9.41309 4.20312L 9.41309 5.5918L 3.17285 5.5918L 3.17285 9.96875L 8.54297 9.96875L 8.54297 11.3486ZM 16.8574 16.0596C 16.2246 16.8037 15.2959 17.1758 14.0713 17.1758C 13.0576 17.1758 12.2842 16.8828 11.751 16.2969C 11.2236 15.7051 10.957 14.832 10.9512 13.6777L 10.9512 7.49023L 12.5771 7.49023L 12.5771 13.6338C 12.5771 15.0752 13.1631 15.7959 14.335 15.7959C 15.5771 15.7959 16.4033 15.333 16.8135 14.4072L 16.8135 7.49023L 18.4395 7.49023L 18.4395 17L 16.8926 17L 16.8574 16.0596ZM 22.4561 7.49023L 22.5088 8.68555C 23.2354 7.77148 24.1846 7.31445 25.3564 7.31445C 27.3662 7.31445 28.3799 8.44824 28.3975 10.7158L 28.3975 17L 26.7715 17L 26.7715 10.707C 26.7656 10.0215 26.6074 9.51465 26.2969 9.18652C 25.9922 8.8584 25.5146 8.69434 24.8643 8.69434C 24.3369 8.69434 23.874 8.83496 23.4756 9.11621C 23.0771 9.39746 22.7666 9.7666 22.5439 10.2236L 22.5439 17L 20.918 17L 20.918 7.49023L 22.4561 7.49023ZM 34.6641 15.8486C 35.2441 15.8486 35.751 15.6729 36.1846 15.3213C 36.6182 14.9697 36.8584 14.5303 36.9053 14.0029L 38.4434 14.0029C 38.4141 14.5479 38.2266 15.0664 37.8809 15.5586C 37.5352 16.0508 37.0723 16.4434 36.4922 16.7363C 35.918 17.0293 35.3086 17.1758 34.6641 17.1758C 33.3691 17.1758 32.3379 16.7451 31.5703 15.8838C 30.8086 15.0166 30.4277 13.833 30.4277 12.333L 30.4277 12.0605C 30.4277 11.1348 30.5977 10.3115 30.9375 9.59082C 31.2773 8.87012 31.7637 8.31055 32.3965 7.91211C 33.0352 7.51367 33.7881 7.31445 34.6553 7.31445C 35.7217 7.31445 36.6064 7.63379 37.3096 8.27246C 38.0186 8.91113 38.3965 9.74023 38.4434 10.7598L 36.9053 10.7598C 36.8584 10.1445 36.624 9.64062 36.2021 9.24805C 35.7861 8.84961 35.2705 8.65039 34.6553 8.65039C 33.8291 8.65039 33.1875 8.94922 32.7305 9.54688C 32.2793 10.1387 32.0537 10.9971 32.0537 12.1221L 32.0537 12.4297C 32.0537 13.5254 32.2793 14.3691 32.7305 14.9609C 33.1816 15.5527 33.8262 15.8486 34.6641 15.8486ZM 42.4775 5.1875L 42.4775 7.49023L 44.2529 7.49023L 44.2529 8.74707L 42.4775 8.74707L 42.4775 14.6445C 42.4775 15.0254 42.5566 15.3125 42.7148 15.5059C 42.873 15.6934 43.1426 15.7871 43.5234 15.7871C 43.7109 15.7871 43.9688 15.752 44.2969 15.6816L 44.2969 17C 43.8691 17.1172 43.4531 17.1758 43.0488 17.1758C 42.3223 17.1758 41.7744 16.9561 41.4053 16.5166C 41.0361 16.0771 40.8516 15.4531 40.8516 14.6445L 40.8516 8.74707L 39.1201 8.74707L 39.1201 7.49023L 40.8516 7.49023L 40.8516 5.1875L 42.4775 5.1875ZM 47.9268 17L 46.3008 17L 46.3008 7.49023L 47.9268 7.49023L 47.9268 17ZM 46.1689 4.96777C 46.1689 4.7041 46.248 4.48145 46.4062 4.2998C 46.5703 4.11816 46.8105 4.02734 47.127 4.02734C 47.4434 4.02734 47.6836 4.11816 47.8477 4.2998C 48.0117 4.48145 48.0938 4.7041 48.0938 4.96777C 48.0938 5.23145 48.0117 5.45117 47.8477 5.62695C 47.6836 5.80273 47.4434 5.89062 47.127 5.89062C 46.8105 5.89062 46.5703 5.80273 46.4062 5.62695C 46.248 5.45117 46.1689 5.23145 46.1689 4.96777ZM 50.1064 12.1572C 50.1064 11.2256 50.2881 10.3877 50.6514 9.64355C 51.0205 8.89941 51.5303 8.3252 52.1807 7.9209C 52.8369 7.5166 53.584 7.31445 54.4219 7.31445C 55.7168 7.31445 56.7627 7.7627 57.5596 8.65918C 58.3623 9.55566 58.7637 10.748 58.7637 12.2363L 58.7637 12.3506C 58.7637 13.2764 58.585 14.1084 58.2275 14.8467C 57.876 15.5791 57.3691 16.1504 56.707 16.5605C 56.0508 16.9707 55.2949 17.1758 54.4395 17.1758C 53.1504 17.1758 52.1045 16.7275 51.3018 15.8311C 50.5049 14.9346 50.1064 13.748 50.1064 12.2715L 50.1064 12.1572ZM 51.7412 12.3506C 51.7412 13.4053 51.9844 14.252 52.4707 14.8906C 52.9629 15.5293 53.6191 15.8486 54.4395 15.8486C 55.2656 15.8486 55.9219 15.5264 56.4082 14.8818C 56.8945 14.2314 57.1377 13.3232 57.1377 12.1572C 57.1377 11.1143 56.8887 10.2705 56.3906 9.62598C 55.8984 8.97559 55.2422 8.65039 54.4219 8.65039C 53.6191 8.65039 52.9717 8.96973 52.4795 9.6084C 51.9873 10.2471 51.7412 11.1611 51.7412 12.3506ZM 62.3408 7.49023L 62.3936 8.68555C 63.1201 7.77148 64.0693 7.31445 65.2412 7.31445C 67.251 7.31445 68.2646 8.44824 68.2822 10.7158L 68.2822 17L 66.6562 17L 66.6562 10.707C 66.6504 10.0215 66.4922 9.51465 66.1816 9.18652C 65.877 8.8584 65.3994 8.69434 64.749 8.69434C 64.2217 8.69434 63.7588 8.83496 63.3604 9.11621C 62.9619 9.39746 62.6514 9.7666 62.4287 10.2236L 62.4287 17L 60.8027 17L 60.8027 7.49023L 62.3408 7.49023ZM 83.417 17L 75.0322 17L 75.0322 15.8311L 79.4619 10.9092C 80.1182 10.165 80.5693 9.56152 80.8154 9.09863C 81.0674 8.62988 81.1934 8.14648 81.1934 7.64844C 81.1934 6.98047 80.9912 6.43262 80.5869 6.00488C 80.1826 5.57715 79.6436 5.36328 78.9697 5.36328C 78.1611 5.36328 77.5312 5.59473 77.0801 6.05762C 76.6348 6.51465 76.4121 7.15332 76.4121 7.97363L 74.7861 7.97363C 74.7861 6.7959 75.1641 5.84375 75.9199 5.11719C 76.6816 4.39062 77.6982 4.02734 78.9697 4.02734C 80.1592 4.02734 81.0996 4.34082 81.791 4.96777C 82.4824 5.58887 82.8281 6.41797 82.8281 7.45508C 82.8281 8.71484 82.0254 10.2148 80.4199 11.9551L 76.9922 15.6729L 83.417 15.6729L 83.417 17Z"/>
<path id="path7_fill" d="M 8.54297 11.3486L 3.17285 11.3486L 3.17285 17L 1.48535 17L 1.48535 4.20312L 9.41309 4.20312L 9.41309 5.5918L 3.17285 5.5918L 3.17285 9.96875L 8.54297 9.96875L 8.54297 11.3486ZM 16.8574 16.0596C 16.2246 16.8037 15.2959 17.1758 14.0713 17.1758C 13.0576 17.1758 12.2842 16.8828 11.751 16.2969C 11.2236 15.7051 10.957 14.832 10.9512 13.6777L 10.9512 7.49023L 12.5771 7.49023L 12.5771 13.6338C 12.5771 15.0752 13.1631 15.7959 14.335 15.7959C 15.5771 15.7959 16.4033 15.333 16.8135 14.4072L 16.8135 7.49023L 18.4395 7.49023L 18.4395 17L 16.8926 17L 16.8574 16.0596ZM 22.4561 7.49023L 22.5088 8.68555C 23.2354 7.77148 24.1846 7.31445 25.3564 7.31445C 27.3662 7.31445 28.3799 8.44824 28.3975 10.7158L 28.3975 17L 26.7715 17L 26.7715 10.707C 26.7656 10.0215 26.6074 9.51465 26.2969 9.18652C 25.9922 8.8584 25.5146 8.69434 24.8643 8.69434C 24.3369 8.69434 23.874 8.83496 23.4756 9.11621C 23.0771 9.39746 22.7666 9.7666 22.5439 10.2236L 22.5439 17L 20.918 17L 20.918 7.49023L 22.4561 7.49023ZM 34.6641 15.8486C 35.2441 15.8486 35.751 15.6729 36.1846 15.3213C 36.6182 14.9697 36.8584 14.5303 36.9053 14.0029L 38.4434 14.0029C 38.4141 14.5479 38.2266 15.0664 37.8809 15.5586C 37.5352 16.0508 37.0723 16.4434 36.4922 16.7363C 35.918 17.0293 35.3086 17.1758 34.6641 17.1758C 33.3691 17.1758 32.3379 16.7451 31.5703 15.8838C 30.8086 15.0166 30.4277 13.833 30.4277 12.333L 30.4277 12.0605C 30.4277 11.1348 30.5977 10.3115 30.9375 9.59082C 31.2773 8.87012 31.7637 8.31055 32.3965 7.91211C 33.0352 7.51367 33.7881 7.31445 34.6553 7.31445C 35.7217 7.31445 36.6064 7.63379 37.3096 8.27246C 38.0186 8.91113 38.3965 9.74023 38.4434 10.7598L 36.9053 10.7598C 36.8584 10.1445 36.624 9.64062 36.2021 9.24805C 35.7861 8.84961 35.2705 8.65039 34.6553 8.65039C 33.8291 8.65039 33.1875 8.94922 32.7305 9.54688C 32.2793 10.1387 32.0537 10.9971 32.0537 12.1221L 32.0537 12.4297C 32.0537 13.5254 32.2793 14.3691 32.7305 14.9609C 33.1816 15.5527 33.8262 15.8486 34.6641 15.8486ZM 42.4775 5.1875L 42.4775 7.49023L 44.2529 7.49023L 44.2529 8.74707L 42.4775 8.74707L 42.4775 14.6445C 42.4775 15.0254 42.5566 15.3125 42.7148 15.5059C 42.873 15.6934 43.1426 15.7871 43.5234 15.7871C 43.7109 15.7871 43.9688 15.752 44.2969 15.6816L 44.2969 17C 43.8691 17.1172 43.4531 17.1758 43.0488 17.1758C 42.3223 17.1758 41.7744 16.9561 41.4053 16.5166C 41.0361 16.0771 40.8516 15.4531 40.8516 14.6445L 40.8516 8.74707L 39.1201 8.74707L 39.1201 7.49023L 40.8516 7.49023L 40.8516 5.1875L 42.4775 5.1875ZM 47.9268 17L 46.3008 17L 46.3008 7.49023L 47.9268 7.49023L 47.9268 17ZM 46.1689 4.96777C 46.1689 4.7041 46.248 4.48145 46.4062 4.2998C 46.5703 4.11816 46.8105 4.02734 47.127 4.02734C 47.4434 4.02734 47.6836 4.11816 47.8477 4.2998C 48.0117 4.48145 48.0938 4.7041 48.0938 4.96777C 48.0938 5.23145 48.0117 5.45117 47.8477 5.62695C 47.6836 5.80273 47.4434 5.89062 47.127 5.89062C 46.8105 5.89062 46.5703 5.80273 46.4062 5.62695C 46.248 5.45117 46.1689 5.23145 46.1689 4.96777ZM 50.1064 12.1572C 50.1064 11.2256 50.2881 10.3877 50.6514 9.64355C 51.0205 8.89941 51.5303 8.3252 52.1807 7.9209C 52.8369 7.5166 53.584 7.31445 54.4219 7.31445C 55.7168 7.31445 56.7627 7.7627 57.5596 8.65918C 58.3623 9.55566 58.7637 10.748 58.7637 12.2363L 58.7637 12.3506C 58.7637 13.2764 58.585 14.1084 58.2275 14.8467C 57.876 15.5791 57.3691 16.1504 56.707 16.5605C 56.0508 16.9707 55.2949 17.1758 54.4395 17.1758C 53.1504 17.1758 52.1045 16.7275 51.3018 15.8311C 50.5049 14.9346 50.1064 13.748 50.1064 12.2715L 50.1064 12.1572ZM 51.7412 12.3506C 51.7412 13.4053 51.9844 14.252 52.4707 14.8906C 52.9629 15.5293 53.6191 15.8486 54.4395 15.8486C 55.2656 15.8486 55.9219 15.5264 56.4082 14.8818C 56.8945 14.2314 57.1377 13.3232 57.1377 12.1572C 57.1377 11.1143 56.8887 10.2705 56.3906 9.62598C 55.8984 8.97559 55.2422 8.65039 54.4219 8.65039C 53.6191 8.65039 52.9717 8.96973 52.4795 9.6084C 51.9873 10.2471 51.7412 11.1611 51.7412 12.3506ZM 62.3408 7.49023L 62.3936 8.68555C 63.1201 7.77148 64.0693 7.31445 65.2412 7.31445C 67.251 7.31445 68.2646 8.44824 68.2822 10.7158L 68.2822 17L 66.6562 17L 66.6562 10.707C 66.6504 10.0215 66.4922 9.51465 66.1816 9.18652C 65.877 8.8584 65.3994 8.69434 64.749 8.69434C 64.2217 8.69434 63.7588 8.83496 63.3604 9.11621C 62.9619 9.39746 62.6514 9.7666 62.4287 10.2236L 62.4287 17L 60.8027 17L 60.8027 7.49023L 62.3408 7.49023ZM 77.3965 9.81055L 78.6182 9.81055C 79.3857 9.79883 79.9893 9.59668 80.4287 9.2041C 80.8682 8.81152 81.0879 8.28125 81.0879 7.61328C 81.0879 6.11328 80.3408 5.36328 78.8467 5.36328C 78.1436 5.36328 77.5811 5.56543 77.1592 5.96973C 76.7432 6.36816 76.5352 6.89844 76.5352 7.56055L 74.9092 7.56055C 74.9092 6.54688 75.2783 5.70605 76.0166 5.03809C 76.7607 4.36426 77.7041 4.02734 78.8467 4.02734C 80.0537 4.02734 81 4.34668 81.6855 4.98535C 82.3711 5.62402 82.7139 6.51172 82.7139 7.64844C 82.7139 8.20508 82.5322 8.74414 82.1689 9.26562C 81.8115 9.78711 81.3223 10.1768 80.7012 10.4346C 81.4043 10.6572 81.9463 11.0264 82.3271 11.542C 82.7139 12.0576 82.9072 12.6875 82.9072 13.4316C 82.9072 14.5801 82.5322 15.4912 81.7822 16.165C 81.0322 16.8389 80.0566 17.1758 78.8555 17.1758C 77.6543 17.1758 76.6758 16.8506 75.9199 16.2002C 75.1699 15.5498 74.7949 14.6914 74.7949 13.625L 76.4297 13.625C 76.4297 14.2988 76.6494 14.8379 77.0889 15.2422C 77.5283 15.6465 78.1172 15.8486 78.8555 15.8486C 79.6406 15.8486 80.2412 15.6436 80.6572 15.2334C 81.0732 14.8232 81.2812 14.2344 81.2812 13.4668C 81.2812 12.7227 81.0527 12.1514 80.5957 11.7529C 80.1387 11.3545 79.4795 11.1494 78.6182 11.1377L 77.3965 11.1377L 77.3965 9.81055Z"/>
</defs>
</svg>
